<svg width="594" height="388" fill="none" xmlns="http://www.w3.org/2000/svg"><path d="M484.256 356.117c-27.045 11.794-62.01 6.761-93.746 9.336-26.819 2.175-51.892 9.973-77.564 15.775-25.672 5.802-53.802 9.612-79.431 3.719-17.606-4.047-32.454-12.321-49.022-18.102-19.994-6.975-42.212-10.227-63.076-15.845-20.864-5.618-41.463-14.42-51.15-28.406-11.648-16.818-4.953-36.797-9.356-55.201-4.969-20.771-23.865-38.706-31.774-59.034-5.587-14.362.21-31.309 6.963-45.245 7.135-14.726 26.969-31.27 46.08-39.839 6.236-2.796 12.394-5.596 18.283-8.759 2.581-1.385 16.159-7.447 16.159-9.641 15.245-10.185 24.396-23.173 37.644-34.451 13.745-11.703 33.865-19.285 54.966-23.004a366.876 366.876 0 0158.306-5.63c21.106-.242 41.575 1.12 61.939-3.91 4.275-1.057 8.422-2.35 12.687-3.432 28.791-7.309 67.348-4.108 94.262 5.733 10.27 3.755 18.864 9.346 27.146 14.987 10.117 6.892 19.587 14.324 26.687 22.88 6.801 8.196 8.955 17.98 17.619 25.673 5.819 5.166 11.545 10.842 17.313 15.825 8.912 7.7 22.638 11.401 31.113 19.791 8.531 8.447 12.588 18.759 15.397 28.754 3.596 12.797 5.611 25.916 3.684 38.885-3.083 20.75-18.819 36.177-34.904 53.062-5.359 5.626-10.746 11.448-12.803 18.036-.98 3.14-1.173 6.369-1.512 9.573-.991 9.366-4.393 17.995-6.954 27.07-4.499 15.941-14.342 32.41-34.956 41.4z" fill="#FFC652"/><path d="M450.209 64.191a12.917 12.917 0 019.205 3.854 12.92 12.92 0 013.718 9.265l-2.845 197.017a12.923 12.923 0 01-12.923 12.74H133.802a7.903 7.903 0 01-7.887-7.447L114.393 77.867a12.918 12.918 0 013.503-9.62 12.924 12.924 0 019.399-4.056h322.914z" fill="#49494A"/><path d="M450.237 69.44a7.52 7.52 0 016.982 4.723 7.55 7.55 0 01.541 2.914l-2.85 197.324a7.528 7.528 0 01-7.523 7.417H138.835a7.524 7.524 0 01-7.511-7.092L120.057 77.401a7.536 7.536 0 014.532-7.346 7.522 7.522 0 012.979-.615h322.669z" fill="#5B5B5C"/><path d="M445.37 270.295H140.517L129.971 87.288l318.326-.56-2.927 183.567z" fill="#545554"/><path d="M289.693 83.834a6.397 6.397 0 006.395-6.399 6.397 6.397 0 10-12.791 0 6.397 6.397 0 006.396 6.399z" fill="#3F4040"/><path d="M445.807 270.295H140.954L129.971 87.288l318.326-.56-2.49 183.567z" fill="#864FF1"/><path d="M448.185 93.782H130.361l-.39-6.494 318.326-.56-.112 7.054z" fill="#49B3F7"/><path d="M180.967 140.664a18.912 18.912 0 00-35.914 8.327 18.924 18.924 0 0014.712 18.413 18.907 18.907 0 0021.233-10.22l-17.037-8.23 17.006-8.29z" fill="#FFC652"/><path d="M165.654 140.394a2.632 2.632 0 002.632-2.633 2.633 2.633 0 10-2.632 2.633z" fill="#243976"/><path d="M206.07 138.241s.942-9.026 11.098-9.026c10.157 0 11.567 8.354 11.892 10.762.434 3.211.694 11.977 0 14.928-.218.929-2.516 1.649-6.506-3.645 0 0-2.603 4.452-4.989 4.452-2.299 0-5.075-4.539-5.075-4.539s-5.602 8.329-6.246 3.819c-.954-6.683-.174-16.751-.174-16.751z" fill="#FF6551"/><path d="M213.225 141.62a3.945 3.945 0 003.944-3.946 3.944 3.944 0 10-7.888 0 3.945 3.945 0 003.944 3.946zm8.594 0a3.945 3.945 0 000-7.891 3.945 3.945 0 000 7.891z" fill="#fff"/><path d="M211.312 139.109a1.606 1.606 0 100-3.212 1.606 1.606 0 000 3.212zm8.639 0a1.605 1.605 0 100-3.21 1.605 1.605 0 000 3.21z" fill="#243976"/><path d="M235.363 197.614s.941-9.026 11.098-9.026 11.567 8.354 11.892 10.762c.434 3.211.694 11.977 0 14.928-.218.929-2.516 1.649-6.506-3.645 0 0-2.603 4.452-4.989 4.452-2.299 0-5.075-4.539-5.075-4.539s-5.602 8.329-6.246 3.819c-.954-6.683-.174-16.751-.174-16.751z" fill="#49B3F7"/><path d="M242.518 200.993a3.945 3.945 0 003.944-3.946 3.944 3.944 0 10-7.888 0 3.945 3.945 0 003.944 3.946zm8.594 0a3.945 3.945 0 000-7.891 3.945 3.945 0 000 7.891z" fill="#fff"/><path d="M240.605 198.482a1.606 1.606 0 100-3.212 1.606 1.606 0 000 3.212zm8.639 0a1.605 1.605 0 100-3.21 1.605 1.605 0 000 3.21z" fill="#243976"/><path d="M268.113 138.171s.941-9.026 11.098-9.026 11.567 8.353 11.892 10.761c.434 3.212.694 11.977 0 14.928-.218.929-2.516 1.649-6.506-3.645 0 0-2.603 4.452-4.989 4.452-2.299 0-5.075-4.539-5.075-4.539s-5.602 8.329-6.246 3.819c-.954-6.683-.174-16.75-.174-16.75z" fill="#67D449"/><path d="M275.266 141.549a3.945 3.945 0 003.944-3.946 3.944 3.944 0 10-7.888 0 3.945 3.945 0 003.944 3.946zm8.596 0a3.945 3.945 0 000-7.891 3.945 3.945 0 000 7.891z" fill="#fff"/><path d="M273.355 139.038a1.606 1.606 0 100-3.211 1.606 1.606 0 000 3.211zm8.639 0a1.605 1.605 0 100-3.21 1.605 1.605 0 000 3.21z" fill="#243976"/><path d="M141.305 178.108l52.405.125m53.056 0v-62.892m-100.246-.819h209.715m0 112.303H195.477m109.537-57.847v57.847" stroke="#5F38BD" stroke-width="15.247" stroke-linecap="round" stroke-linejoin="round"/><path d="M445.807 270.295H140.954L129.971 87.288l318.326-.56-2.49 183.567z" stroke="#fff" stroke-width="2" stroke-linecap="round" stroke-linejoin="round"/><path d="M326.828 80.262h-20.546a2.823 2.823 0 01-2.825-2.826 2.827 2.827 0 012.825-2.827h20.546a2.825 2.825 0 010 5.653zm-54.639 0h-20.546a2.823 2.823 0 01-2.825-2.826 2.827 2.827 0 012.825-2.827h20.546a2.825 2.825 0 010 5.653z" fill="#545554"/><path d="M456.553 159.685l-1.642 114.716a7.528 7.528 0 01-7.523 7.416H240.484c69.428-20.29 158.625-59.276 216.069-122.132z" fill="#00879F" opacity=".15"/><path d="M381.97 69.44c-74.956 44.006-199.424 64.428-258.209 72l-3.702-64.038a7.536 7.536 0 014.532-7.346 7.522 7.522 0 012.979-.616h254.4z" fill="#EBF7FD" opacity=".28"/><path d="M224.19 260.427c-.372-.197-.799-.009-1.397.261a1.46 1.46 0 01-1.422-.133 14.033 14.033 0 01-1.747-1.415 6.908 6.908 0 00-1.244-.836 4.422 4.422 0 00-.796-.322c-.13-.043-.328-.081-.425-.102-.049-.01-.083-.018-.076-.02-.045-.029-.03-.034-.022-.049.008-.013.047-.05.052-.046.014-.008-.017.015.018-.017l.416-.349c.205-.174.41-.36.616-.553l.306-.305.265-.277.524-.562a23.557 23.557 0 003.218-4.268c.232-.415.441-.841.626-1.278.096-.229.202-.427.287-.681.086-.27.15-.547.192-.827a5.91 5.91 0 00-.417-3.166 6.27 6.27 0 00-1.685-2.333 4.874 4.874 0 00-2.759-1.176 4.508 4.508 0 00-2.83.736 5.492 5.492 0 00-1.751 1.916c-.451.827-.311 1.487.002 1.691.331.219.795.028 1.356-.547.861-.887 1.939-1.452 2.861-1.283a2.943 2.943 0 012.221 1.973c.21.511.289 1.068.228 1.618a6.044 6.044 0 01-.657 1.695 19.154 19.154 0 01-2.469 3.479c-.353.405-.72.805-1.095 1.203-.348.37-.719.717-1.112 1.039l-1.105.911-.576.51-.513.51a7.18 7.18 0 00-1.284 1.891 2.43 2.43 0 00-.14 1.583c.048.155.124.298.226.424a.465.465 0 00.247.184l.357.038c.094.007.191.012.29.013l.4-.003c.295.002.59-.04.873-.124a4.91 4.91 0 00.846-.414l.835-.447a3.13 3.13 0 01.356-.169.806.806 0 01.298-.098l.223-.014.093.009c.139.02.275.052.408.097.321.117.627.27.914.455.699.514 1.436.977 2.203 1.383.47.221.979.344 1.498.362a3.201 3.201 0 001.532-.361 1.735 1.735 0 00.948-1.115.617.617 0 00-.213-.691z" fill="#FFC652"/><path d="M230.782 241.769a6.303 6.303 0 00-2.204 1.863 10.672 10.672 0 00-1.42 2.566 16.07 16.07 0 00-1.051 5.566 16.535 16.535 0 00.875 5.961 15.38 15.38 0 003.081 5.013c.846.93 2.022-.009 1.379-.959a16.15 16.15 0 01-1.901-4.735 17.274 17.274 0 01-.637-4.769c.03-1.715.306-3.417.819-5.054.24-.74.55-1.456.927-2.136.355-.644.743-1.268 1.162-1.872a1.194 1.194 0 00.099-1.137.79.79 0 00-.495-.411.773.773 0 00-.634.104z" fill="#67D449"/><path d="M245.008 258.067a4.046 4.046 0 01-2.994-.793 2.58 2.58 0 01-.819-.941 11.137 11.137 0 01-.633-1.631c-.078-.229-.164-.45-.248-.673.655-1.029 1.33-2.025 2.007-3.028.183-.303.409-.577.669-.816.084-.067.19-.1.297-.094.234 0 .469.019.7.059.61.097 1.534-.811.969-1.484a3.07 3.07 0 00-.971-.736 2.632 2.632 0 00-1.687-.197 3.545 3.545 0 00-1.829 1.185c-.344.389-.636.76-.928 1.159-.236.321-.452.648-.666.973-.092-.149-.175-.3-.274-.448a11.508 11.508 0 00-1.35-1.744 4.168 4.168 0 00-.973-.737 2.579 2.579 0 00-.623-.247 1.904 1.904 0 00-.704-.073.72.72 0 00-.598.327.729.729 0 00-.097.55c.075.309.203.602.379.866.585.76 1.106 1.566 1.558 2.411.334.602.668 1.245.972 1.885-.072.127-.152.25-.222.378a17.776 17.776 0 01-.891 1.551c-.362.471-.754.918-1.176 1.337-.456.487-.906.979-1.387 1.45-.604.592.242 1.84.995 1.353.56-.362 1.133-.69 1.703-1.025a7.745 7.745 0 001.814-1.324 6.22 6.22 0 00.446-.539c.061.137.12.273.192.413a4.908 4.908 0 001.888 2.03 5.693 5.693 0 004.891.231.765.765 0 00.42-1.043.807.807 0 00-.83-.585z" fill="#FF6551"/><path d="M358.736 258.067a4.041 4.041 0 01-2.993-.793 2.57 2.57 0 01-.819-.941 11.142 11.142 0 01-.634-1.631c-.078-.229-.164-.45-.248-.673.656-1.029 1.331-2.025 2.007-3.028.184-.303.409-.578.67-.816a.434.434 0 01.296-.094c.235 0 .469.019.701.059.61.097 1.534-.811.969-1.484a3.074 3.074 0 00-.972-.736 2.63 2.63 0 00-1.687-.197 3.545 3.545 0 00-1.829 1.185c-.344.389-.635.76-.928 1.159-.235.321-.452.648-.666.973-.091-.149-.175-.3-.273-.448a11.638 11.638 0 00-1.35-1.744 4.189 4.189 0 00-.973-.737 2.586 2.586 0 00-.624-.247 1.904 1.904 0 00-.704-.073.72.72 0 00-.597.327.734.734 0 00-.098.55c.075.309.204.602.38.866.584.76 1.105 1.566 1.558 2.411.333.602.667 1.245.971 1.885-.072.127-.152.25-.222.378a17.14 17.14 0 01-.891 1.551c-.361.471-.754.918-1.176 1.337-.456.487-.906.979-1.386 1.45-.605.592.241 1.84.994 1.353.56-.362 1.133-.69 1.703-1.025a7.772 7.772 0 001.815-1.324c.158-.171.307-.351.446-.539.06.137.12.273.191.413a4.9 4.9 0 001.888 2.029 5.684 5.684 0 004.892.232.764.764 0 00.493-.739.763.763 0 00-.073-.304.805.805 0 00-.831-.585z" fill="#FFC652"/><path d="M258.51 251.469c-.752-.143-1.474-.426-2.233-.511-.714-.079-1.429-.095-2.146-.115a17.223 17.223 0 00-2.294.054 4.574 4.574 0 00-2.089.389c-.387.233-.521 1.5-.111 1.769 1.242.812 2.857.594 4.19.594.764-.001 1.528.014 2.293-.047.773-.062 1.522-.331 2.29-.456.483-.079.605-1.58.1-1.677z" fill="#49B3F7"/><path d="M270.208 249.887a6.91 6.91 0 00.348-.578 4.75 4.75 0 00.445-2.983 4.886 4.886 0 00-1.172-2.466 3.846 3.846 0 00-2.548-1.263 4.754 4.754 0 00-4.374 1.91 1.457 1.457 0 00-.234 1.118.646.646 0 00.428.497 1.41 1.41 0 001.131-.433 3.595 3.595 0 012.651-.59c.353.043.677.218.907.489.257.317.421.698.474 1.103.062.407.007.823-.159 1.199-.129.258-.29.498-.477.716a5.093 5.093 0 00-1.131-.039 3.412 3.412 0 00-.94.213c-.208.081-.403.19-.583.322a2.95 2.95 0 00-.408.382c-.06.062-.115.129-.166.199a2.209 2.209 0 00-.381.729c-.092.314-.088.648.011.96.055.188.147.363.27.516.109.136.236.256.378.356a2.087 2.087 0 00.908.316c.094.011.188.017.282.016a4.064 4.064 0 001.686-.356c.235-.108.463-.234.68-.375.173.155.323.332.448.527a4.517 4.517 0 01.368 3.338 3.36 3.36 0 01-.622 1.489 3.175 3.175 0 01-1.333.947 4.398 4.398 0 01-3.625-.339c-.744-.388-1.355-.443-1.657-.166-.287.257-.224.923.724 1.565a7.636 7.636 0 002.342 1.045 5.928 5.928 0 002.705.053 5.384 5.384 0 002.532-1.295c.376-.348.693-.755.939-1.204a6.24 6.24 0 00.527-1.316 7.235 7.235 0 00-.278-5.104 5.411 5.411 0 00-1.096-1.498zm-3.575 1.509l.002.001s-.005.003-.002-.001z" fill="#FFC652"/><path d="M279.256 249.127a11.568 11.568 0 00-1.01-2.883 7.755 7.755 0 00-3.929-3.834.903.903 0 00-1.106.274.903.903 0 00.036 1.139 15.017 15.017 0 012.478 3.549c.59 1.415.958 2.913 1.088 4.44a17.17 17.17 0 01-.316 5.046 12.688 12.688 0 01-1.778 4.716c-.629.842.27 2.081 1.251 1.122a12.92 12.92 0 003.06-5.067c.526-1.804.734-3.686.616-5.561a17.883 17.883 0 00-.39-2.941z" fill="#67D449"/><path d="M288.685 250.382c.669-.055 1.339-.073 2.009-.139.672-.065 1.341-.315 2.015-.358.4-.024.838-1.471.321-1.648a11.399 11.399 0 00-2.178-.637 13.39 13.39 0 00-2.081-.039 10.17 10.17 0 00-2.203.3 3.551 3.551 0 00-1.938.815c-.322.344.031 1.566.414 1.724 1.149.485 2.459.078 3.641-.018zm5.267 4.335a15.851 15.851 0 00-2.164-.573 17.144 17.144 0 00-2.052-.076 12.62 12.62 0 00-2.188.164 3.791 3.791 0 00-2.059.644c-.418.359.046 1.559.336 1.74.979.596 2.506.322 3.71.266.7-.027 1.4-.029 2.1-.094.703-.065 1.393-.327 2.086-.407.405-.044.765-1.512.231-1.664z" fill="#49B3F7"/><path d="M309.743 251.25a14.807 14.807 0 01-1.768-.483c-.23-.05-.482-.094-.735-.137.196-.621.391-1.242.61-1.857l.324-.877.169-.435.085-.217.074-.189.093-.219 1.505-3.446a131.942 131.942 0 00-3.637-.037l-.612.004-.352.009-.664.018a39.02 39.02 0 00-1.327.055c-.871.041-1.736.179-2.577.412a.9.9 0 00-.014 1.773c1.13.218 2.274.356 3.423.41l.898.044.451.017c.111.003.048.003.066.004v.002a.077.077 0 01.027-.017c.017-.006.033 0 .04.027l.003.011c-.009.026.023-.048-.017.056l-.152.407-.291.801a42.459 42.459 0 00-.975 3.059 6.83 6.83 0 00-.767.092 3.584 3.584 0 00-1.999.67 1.55 1.55 0 00.244 1.756c.589.256 1.23.371 1.872.336a38.412 38.412 0 00-.407 5.556c-.02 1.229 1.469 1.457 1.664.231.313-1.831.858-3.553 1.335-5.336.038-.146.083-.289.123-.435.352.031.718.061 1.113.069a7.583 7.583 0 002.346-.464c.516-.174.183-1.649-.171-1.67z" fill="#FFC652"/><path d="M318.733 261.028a19.633 19.633 0 01-1.071-2.376c-.6-1.531-.947-3.15-1.026-4.792-.057-1.757.188-3.51.724-5.183a33.436 33.436 0 012.089-4.413c.403-.817-.317-1.904-1.288-1.221a10.428 10.428 0 00-3.372 4.623 15.804 15.804 0 00.399 11.928 11.951 11.951 0 001.673 2.609 9.8 9.8 0 002.317 2.125.851.851 0 00.704.182.859.859 0 00.589-.426.896.896 0 00.052-.599.896.896 0 00-.335-.499 6.453 6.453 0 01-1.455-1.958z" fill="#67D449"/><path d="M332.728 258.417c-.374-.196-.812.009-1.315.306a2.542 2.542 0 01-1.526.277 5.85 5.85 0 01-1.768-.493c-.3-.13-.605-.279-.915-.439-.324-.165-.693-.354-1.111-.52a6.067 6.067 0 00-.683-.226c-.128-.03-.25-.062-.39-.082l-.052-.008c-.012-.002.004 0-.001-.001l-.003-.003-.004-.004a.057.057 0 01-.013-.021.145.145 0 01.017-.026c.016-.013.013-.006.011-.009l1.889-2.07a15.186 15.186 0 002.839-4.11 7.41 7.41 0 00.556-2.722 5.306 5.306 0 00-.763-2.89 3.91 3.91 0 00-2.466-1.7 4.758 4.758 0 00-2.717.224 5.033 5.033 0 00-2.061 1.496 5.778 5.778 0 00-1.1 2.033c-.24.823.039 1.4.388 1.529.368.137.784-.095 1.179-.691a4.757 4.757 0 012.347-1.951 2.55 2.55 0 011.298-.048 1.123 1.123 0 01.764.533 3.747 3.747 0 01.035 2.882 10.682 10.682 0 01-1.951 3.038c-.365.43-.756.859-1.152 1.295l-1.249 1.387a53.74 53.74 0 00-1.063 1.28 5.768 5.768 0 00-.815 1.229 2.285 2.285 0 00-.134 1.93c.094.194.217.372.365.527.1.113.229.195.372.239.155.032.204-.017.361-.024.092-.009.245.045.572.043.088.005.177-.001.264-.018.106-.009.211-.028.314-.056l.376-.139c.14-.07.273-.151.398-.244l.366-.237a1.9 1.9 0 01.316-.181.816.816 0 01.131.007l.045.002c.028-.001.061.006.092.009.14.016.278.043.413.079.327.09.649.196.965.319.36.135.739.268 1.126.382a8.023 8.023 0 002.471.369c.9.004 1.78-.259 2.531-.754a1.594 1.594 0 00.72-1.109.634.634 0 00-.269-.639zm13.679-7.741c-.87-.07-1.721-.281-2.594-.291a21.81 21.81 0 00-1.201.025 9.418 9.418 0 00-.118-.992 3.64 3.64 0 00-.665-2.055c-.343-.384-1.558.002-1.74.335a5.395 5.395 0 00-.3 2.918c-.347.039-.695.079-1.042.142a5.874 5.874 0 00-2.343.591c-.418.27-.446 1.545.048 1.772a6.786 6.786 0 003.526.317c.006.048.006.096.014.144.163.765.415 1.507.751 2.213.232.523 1.651-.003 1.647-.325-.007-.569.214-1.238.249-1.908.006-.125.005-.253.009-.379.416-.04.831-.086 1.246-.151.874-.137 1.702-.478 2.565-.678.543-.126.534-1.632-.052-1.678zm19.436-4.134c-.945-1.677-2.195-3.363-3.894-4.184-.991-.45-1.797.542-1.173 1.329a26.47 26.47 0 012.586 4.068 13.618 13.618 0 011.381 4.661 15.33 15.33 0 01-.53 5.311 18.623 18.623 0 01-2.042 5.111c-.635.977.39 2.102 1.312 1.049a17.296 17.296 0 003.219-5.26c.67-1.901.968-3.913.877-5.927a13.713 13.713 0 00-1.736-6.158zM335.3 184.039c-.593-.107-1.169-.355-1.767-.402a9.171 9.171 0 00-.703-.024c.134-1.416.307-2.813.378-4.244l.231-5.198.074-1.124.117-1.4.06-.697a2.37 2.37 0 00-.067-.517l-.088-.486c-.033-.15-.046-.365-.115-.388-.271-.26-.279-.532-.997-.758a.885.885 0 00-.527-.002c-.054.009-.155.042-.238.068a1.4 1.4 0 00-.297.123 2.82 2.82 0 00-.952.773 11.799 11.799 0 01-1.377 1.681c-.28.296-.354.34-.469.46l-.348.31c-.469.4-.942.773-1.445 1.135a1.164 1.164 0 00-.459 1.048.77.77 0 00.334.542.789.789 0 00.627.11 5.973 5.973 0 002.304-.783c.187-.101.359-.22.537-.337.089-.058.171-.123.257-.186l.128-.096c-.009.012.004.008.004.008a.057.057 0 01.022.011.06.06 0 01.014.021c.002.043-.008.009.033-.037.03-.038.065-.022.078.055l-.053 1.281-.04 1.418c-.018.944-.019 1.887.008 2.827.042 1.511.23 2.967.379 4.44a7.741 7.741 0 00-.885.119 2.982 2.982 0 00-1.62.489 1.796 1.796 0 00-.018 1.773c1.002.751 2.257.455 3.3.39.6-.022 1.198-.075 1.792-.158.602-.099 1.178-.404 1.774-.566.375-.102.413-1.607.014-1.679zm11.111.065c-.593-.107-1.169-.354-1.766-.402a9.738 9.738 0 00-.704-.024c.134-1.416.307-2.813.378-4.243l.231-5.199.074-1.123.117-1.4.06-.698a2.379 2.379 0 00-.067-.517l-.088-.485c-.032-.15-.046-.366-.114-.389-.272-.259-.279-.532-.998-.758a.885.885 0 00-.527-.002c-.054.01-.155.042-.238.068-.103.03-.203.071-.297.124-.37.184-.695.448-.951.772a11.695 11.695 0 01-1.378 1.681c-.28.297-.354.34-.469.461l-.348.309c-.469.4-.942.773-1.445 1.136a1.166 1.166 0 00-.459 1.047.78.78 0 00.962.653 5.993 5.993 0 002.303-.784c.187-.101.359-.219.537-.336.089-.059.172-.124.258-.186l.127-.096c-.009.011.004.008.004.008a.039.039 0 01.022.011.043.043 0 01.014.021c.002.042-.008.008.034-.038.029-.037.064-.022.077.055l-.053 1.281-.04 1.418c-.017.944-.018 1.887.008 2.827.042 1.512.231 2.967.379 4.44a7.774 7.774 0 00-.885.12 2.962 2.962 0 00-1.619.489 1.783 1.783 0 00-.019 1.772c1.002.752 2.257.456 3.3.391.6-.022 1.198-.075 1.793-.158.602-.099 1.177-.404 1.774-.567.375-.102.412-1.607.013-1.679z" fill="#FFC652"/><path d="M362.881 178.336c-1.012-.111-1.994-.362-3.013-.413-.337-.017-.674-.019-1.011-.024a21.893 21.893 0 00-.067-1.637c-.072-.828-.351-1.634-.486-2.464-.085-.52-1.585-.671-1.675-.12-.134.816-.407 1.603-.482 2.432a24.985 24.985 0 00-.078 1.815c-.712.019-1.422.05-2.134.13a7.867 7.867 0 00-2.767.48c-.502.25-.605 1.521-.04 1.772 1.511.67 3.362.522 5.002.438.007.068.006.135.013.202a5.278 5.278 0 00.416 2.254c.239.409 1.508.488 1.771.035a5.205 5.205 0 00.582-2.608c.302-.017.605-.029.907-.058 1.028-.095 2.012-.397 3.031-.555.64-.1.712-1.605.031-1.679z" fill="#49B3F7"/><path d="M375.524 176.685a5.387 5.387 0 00.553-2.522 5.069 5.069 0 00-.801-2.578 5.071 5.071 0 00-2.013-1.799 3.994 3.994 0 00-2.699-.241 3.887 3.887 0 00-2.1 1.371 1.557 1.557 0 00-.349 1.06.677.677 0 00.341.561c.366.164.759-.011 1.214-.319a2.339 2.339 0 012.392-.202 2.6 2.6 0 011.253 2.157c.004.35-.064.698-.201 1.02a3.337 3.337 0 00-2.465.419 2.895 2.895 0 00-.816.763c-.293.39-.456.862-.467 1.349a1.98 1.98 0 00.249.976c.17.309.422.566.728.742a2.35 2.35 0 001.356.292 3.168 3.168 0 001.235-.35l.16-.09a4.16 4.16 0 00.313-.192c.106-.07.204-.152.307-.228.15.202.284.416.401.64a4.412 4.412 0 01.35 3.35 3.829 3.829 0 01-2.284 2.379 3.063 3.063 0 01-3.235-.888c-.502-.559-.932-.929-1.351-.896-.199.024-.365.173-.432.501-.042.484.101.967.4 1.35a5.215 5.215 0 002.168 1.757 4.985 4.985 0 002.837.352 5.842 5.842 0 004.311-3.465 6.775 6.775 0 00-.073-5.227 7.287 7.287 0 00-1.282-2.042z" fill="#FFC652"/><path d="M394.35 174.903a.557.557 0 00-.393-.165c-.477.044-1.164-.18-2.113-.253a3.385 3.385 0 00-1.733.315 3.076 3.076 0 00-.832.622c-.183.198-.349.41-.496.636a39.34 39.34 0 01-1.766 2.496 10.72 10.72 0 00-1.188-1.433 5.703 5.703 0 00-2.113-1.436 3.754 3.754 0 00-1.337-.221 7.04 7.04 0 00-.64.119l-.303.081a4.538 4.538 0 00-.268.142.96.96 0 00-.348.426.968.968 0 00.655 1.322c.231.033.459.087.679.163.097.039.191.084.282.136a.794.794 0 01.263.147c.399.262.756.582 1.061.95.483.58.925 1.192 1.323 1.834a53.54 53.54 0 01-1.76 1.775 28.695 28.695 0 01-3.007 2.28c-.539.382-.639 1.699.411 1.724a7.364 7.364 0 004.327-1.851c.543-.44 1.06-.911 1.548-1.411.164.261.328.523.513.785l.387.509c.147.171.312.341.47.507a5.43 5.43 0 001.095.842c.842.512 1.84.704 2.812.542a3.315 3.315 0 002.298-1.667.767.767 0 00.008-.739.716.716 0 00-.498-.32 1.236 1.236 0 00-.922.148 1.22 1.22 0 01-1.038.375 2.758 2.758 0 01-1.173-.531 4.182 4.182 0 01-.559-.479 6.608 6.608 0 01-.489-.616 17.605 17.605 0 01-.953-1.545 22.233 22.233 0 002.441-3.597 4.18 4.18 0 01.308-.546.923.923 0 01.56-.275c.599-.143 1.428-.074 2.354-.296a.803.803 0 00.57-.477.687.687 0 00.032-.302.694.694 0 00-.097-.287 1.622 1.622 0 00-.371-.429z" fill="#FF6551"/><path d="M409.429 175.772a17.753 17.753 0 00-2.665-.531 17.192 17.192 0 00-2.577.079 13.75 13.75 0 00-2.699.488 5.233 5.233 0 00-2.303.971c-.372.35-.118 1.598.395 1.728 1.542.385 3.174-.185 4.637-.363.829-.105 1.663-.16 2.501-.255.843-.095 1.671-.362 2.538-.447.538-.052.772-1.541.173-1.67zm-.175 5.638a12.035 12.035 0 00-2.094-.733 11.468 11.468 0 00-2.094-.127 9.247 9.247 0 00-2.217.264 3.557 3.557 0 00-1.893.769 1.574 1.574 0 00.315 1.744c1.215.522 2.483.1 3.634.04.649-.038 1.299-.027 1.958-.059.663-.031 1.339-.235 2.032-.257.428-.014.828-1.467.359-1.641z" fill="#49B3F7"/><path d="M417.998 175.555a4.787 4.787 0 00-2.352.223c-.468.173-.392.16-.406.165l-.02.021c-.012.011-.04.063-.066.05-.018-.01-.02-.025-.03-.055l-.008-.041-.004-.025c.001-.012-.004.006.002-.03l.027-.157.216-1.253.117-.675c.036-.208.097-.529.081-.48 0-.078.009-.155.026-.231a.848.848 0 00.111.016l.064.004.034.001c.02.002-.014-.006.082.008.519.07 1.042.095 1.566.074.97-.04 1.931-.202 2.86-.482 1.49-.458 1.562-1.756-.121-1.772-.869-.016-1.745-.033-2.595-.117-.417-.042-.83-.108-1.239-.198a4.398 4.398 0 01-.577-.148c-.237-.077-.472-.144-.716-.231l-1.471-.534-.902 4.091-.753 3.667c-.082.4-.071.813.033 1.207.071.269.198.519.374.735.103.126.224.237.358.329.131.091.275.16.427.207.201.054.41.074.617.06.398-.034.778-.18 1.096-.422a7.89 7.89 0 011.273-.907l.271-.134.124-.051c.077-.03.152-.056.227-.078.138-.042.281-.068.425-.08a2.415 2.415 0 012.23 1.632 6.002 6.002 0 01.211 3.647 3.441 3.441 0 01-.786 1.478 3.321 3.321 0 01-1.463.882 4.117 4.117 0 01-3.637-.716c-.684-.502-1.27-.69-1.626-.482-.333.183-.402.895.492 1.722a6.908 6.908 0 002.309 1.383 5.894 5.894 0 002.787.282 5.336 5.336 0 004.396-3.594 7.895 7.895 0 00.437-2.589 8.179 8.179 0 00-.375-2.585 5.436 5.436 0 00-4.126-3.817zm13.842 0a4.787 4.787 0 00-2.352.223c-.468.173-.393.16-.406.165l-.02.021c-.013.011-.04.063-.067.05-.018-.01-.019-.025-.029-.055l-.008-.041-.004-.025c.001-.012-.005.006.001-.03l.028-.157.216-1.253.117-.675c.036-.208.097-.529.081-.48 0-.078.009-.155.025-.231a.863.863 0 00.112.016l.063.004.034.001c.021.002-.013-.006.083.008.518.07 1.042.095 1.565.074.97-.04 1.931-.202 2.861-.482 1.49-.458 1.562-1.756-.121-1.772-.869-.016-1.746-.033-2.595-.117a10.81 10.81 0 01-1.24-.198 4.384 4.384 0 01-.576-.148c-.237-.077-.472-.144-.717-.231l-1.471-.534-.902 4.091-.752 3.667c-.082.4-.071.813.033 1.207.071.269.198.519.374.735.103.126.224.237.358.329.131.091.275.16.427.207.201.054.409.074.617.06.398-.034.778-.18 1.096-.422a7.89 7.89 0 011.273-.907l.27-.134.124-.051c.077-.03.153-.056.227-.078.139-.042.282-.068.426-.08a2.416 2.416 0 012.23 1.632 6.001 6.001 0 01.21 3.647 3.44 3.44 0 01-.785 1.478c-.403.416-.907.72-1.463.882a4.114 4.114 0 01-3.637-.716c-.684-.502-1.27-.69-1.627-.482-.333.183-.401.895.493 1.722a6.898 6.898 0 002.309 1.383 5.894 5.894 0 002.787.282 5.34 5.34 0 004.395-3.594 7.922 7.922 0 00.438-2.589 8.207 8.207 0 00-.375-2.585 5.434 5.434 0 00-4.126-3.817zm-6.999-21.066c-.372-.197-.8-.009-1.398.261a1.452 1.452 0 01-1.421-.133 13.888 13.888 0 01-1.747-1.415 6.95 6.95 0 00-1.245-.836 4.393 4.393 0 00-.796-.322c-.129-.043-.328-.081-.424-.102-.049-.01-.084-.018-.076-.02-.046-.029-.031-.034-.023-.049.009-.013.047-.05.052-.046.014-.008-.017.015.018-.017l.417-.349c.204-.174.41-.36.615-.553l.306-.305.265-.277.525-.562a23.551 23.551 0 003.217-4.268c.232-.414.441-.841.626-1.278.097-.229.202-.427.287-.681.087-.27.151-.547.192-.827a5.919 5.919 0 00-.416-3.166 6.283 6.283 0 00-1.686-2.333 4.864 4.864 0 00-2.759-1.175 4.498 4.498 0 00-2.829.735 5.485 5.485 0 00-1.752 1.916c-.451.827-.31 1.487.002 1.691.331.219.795.028 1.357-.547.861-.887 1.939-1.452 2.861-1.283a2.943 2.943 0 012.22 1.973c.211.511.289 1.068.229 1.618a5.999 5.999 0 01-.658 1.694 19.127 19.127 0 01-2.469 3.48c-.353.405-.719.805-1.095 1.203-.348.37-.719.717-1.111 1.039l-1.106.911-.576.51-.513.51a7.205 7.205 0 00-1.284 1.891 2.43 2.43 0 00-.14 1.583c.048.155.125.298.227.424a.459.459 0 00.246.184l.357.038c.094.007.191.012.29.013l.4-.003c.296.002.59-.04.873-.124.295-.111.578-.249.847-.414l.834-.447a3.13 3.13 0 01.356-.169.81.81 0 01.299-.098l.223-.014.092.009c.139.02.276.052.409.097.32.117.626.27.913.455.7.514 1.436.977 2.204 1.383.469.221.979.344 1.497.362a3.205 3.205 0 001.533-.361 1.731 1.731 0 00.947-1.115.617.617 0 00-.212-.691z" fill="#FFC652"/><path d="M439.16 152.129a4.028 4.028 0 01-2.993-.792 2.573 2.573 0 01-.819-.942 11.055 11.055 0 01-.634-1.631c-.078-.228-.164-.449-.248-.673.655-1.028 1.331-2.024 2.007-3.028.183-.302.409-.577.67-.816a.439.439 0 01.296-.093c.235-.001.469.019.7.059.611.097 1.534-.812.969-1.485a3.059 3.059 0 00-.971-.736 2.638 2.638 0 00-1.687-.197 3.553 3.553 0 00-1.829 1.186c-.344.389-.635.759-.928 1.158a23.35 23.35 0 00-.666.973c-.091-.149-.175-.3-.273-.448a11.622 11.622 0 00-1.351-1.743 4.129 4.129 0 00-.972-.737 2.507 2.507 0 00-.624-.247 1.905 1.905 0 00-.704-.074.721.721 0 00-.695.878c.075.308.203.601.379.866a17.461 17.461 0 011.559 2.41c.333.603.667 1.246.971 1.886-.072.127-.152.25-.222.377-.27.532-.568 1.05-.891 1.551-.361.472-.754.919-1.176 1.337-.456.487-.906.98-1.387 1.451-.604.592.242 1.839.995 1.352.56-.361 1.133-.69 1.703-1.024a7.745 7.745 0 001.814-1.324c.159-.172.308-.352.446-.539.061.136.121.272.192.413a4.906 4.906 0 001.888 2.029 5.698 5.698 0 004.892.232.773.773 0 00.492-.739.75.75 0 00-.073-.305.806.806 0 00-.83-.585zm-56.23-1.518a4.046 4.046 0 01-2.994-.793 2.574 2.574 0 01-.819-.942 10.971 10.971 0 01-.633-1.63c-.078-.229-.164-.45-.248-.673.655-1.029 1.33-2.025 2.007-3.028.183-.303.408-.578.669-.817a.44.44 0 01.296-.093c.235-.001.47.019.701.059.61.097 1.534-.811.969-1.484a3.063 3.063 0 00-.972-.736 2.63 2.63 0 00-1.687-.197 3.553 3.553 0 00-1.829 1.185c-.344.389-.635.76-.927 1.159-.236.321-.452.648-.666.973-.092-.149-.176-.3-.274-.448a11.573 11.573 0 00-1.35-1.744 4.168 4.168 0 00-.973-.737 2.595 2.595 0 00-.623-.247 1.907 1.907 0 00-.705-.073.72.72 0 00-.695.877c.076.309.204.602.38.866.585.76 1.106 1.566 1.558 2.411.333.602.668 1.245.971 1.885-.072.127-.151.25-.222.378-.27.532-.567 1.049-.891 1.551-.361.471-.754.918-1.175 1.336-.456.488-.906.98-1.387 1.451-.604.592.241 1.84.995 1.353.559-.362 1.133-.69 1.703-1.025a7.745 7.745 0 001.814-1.324c.158-.171.307-.351.446-.539.061.137.12.273.192.413a4.893 4.893 0 001.888 2.029 5.689 5.689 0 004.891.232.765.765 0 00.42-1.043.809.809 0 00-.83-.585z" fill="#FF6551"/><path d="M400.314 143.936c.669-.055 1.339-.072 2.009-.138.672-.066 1.341-.316 2.015-.358.4-.025.838-1.472.321-1.648a11.327 11.327 0 00-2.178-.637 13.401 13.401 0 00-2.082-.039c-.743.019-1.481.12-2.202.3a3.557 3.557 0 00-1.939.815c-.321.344.032 1.566.415 1.723 1.149.486 2.459.079 3.641-.018zm5.267 4.336a15.708 15.708 0 00-2.164-.573 17.356 17.356 0 00-2.052-.077 12.72 12.72 0 00-2.188.165 3.799 3.799 0 00-2.059.643c-.418.36.046 1.56.335 1.741.98.595 2.507.322 3.711.266.7-.027 1.4-.029 2.099-.095.704-.064 1.394-.327 2.087-.407.405-.044.765-1.511.231-1.663z" fill="#49B3F7"/><path d="M333.936 145.961a14.93 14.93 0 01-1.767-.483c-.23-.051-.483-.094-.736-.137.196-.622.392-1.243.61-1.858l.324-.877.17-.434.084-.218.074-.188.093-.22 1.505-3.445c-1.24-.025-2.452-.047-3.637-.038l-.612.004-.352.01-.664.017c-.443.012-.886.028-1.327.056a11.65 11.65 0 00-2.576.411.899.899 0 00-.014 1.774c1.129.218 2.273.355 3.423.41l.897.044.452.016c.111.004.048.003.065.004v.002a.088.088 0 01.028-.017c.016-.005.032.001.039.028l.003.01c-.009.027.023-.048-.016.056l-.152.408-.292.8a42.61 42.61 0 00-.974 3.059 7.072 7.072 0 00-.767.093 3.593 3.593 0 00-2 .669 1.554 1.554 0 00.244 1.756c.589.257 1.23.372 1.872.336a38.273 38.273 0 00-.406 5.557c-.02 1.229 1.469 1.456 1.663.231.313-1.832.858-3.554 1.335-5.336.039-.146.084-.29.123-.435.352.031.719.061 1.113.068a7.593 7.593 0 002.347-.463c.516-.175.183-1.649-.172-1.67z" fill="#FFC652"/><path d="M342.924 153.571a19.529 19.529 0 01-1.07-2.375 15.13 15.13 0 01-1.027-4.793 15.388 15.388 0 01.725-5.183 33.304 33.304 0 012.088-4.413c.404-.816-.317-1.903-1.287-1.22a10.407 10.407 0 00-3.372 4.623 15.796 15.796 0 00.399 11.927 11.944 11.944 0 001.673 2.61 9.758 9.758 0 002.317 2.124.87.87 0 00.331.17.87.87 0 00.715-.135.87.87 0 00.247-.279.908.908 0 00-.283-1.098 6.415 6.415 0 01-1.456-1.958z" fill="#67D449"/><path d="M356.921 150.96c-.373-.196-.812.009-1.315.306a2.541 2.541 0 01-1.526.277 5.818 5.818 0 01-1.767-.494 14.528 14.528 0 01-.916-.438 12.533 12.533 0 00-1.11-.52 6.15 6.15 0 00-.684-.226c-.128-.03-.25-.062-.39-.082l-.051-.009h-.002l-.002-.003-.005-.004a.074.074 0 01-.013-.021.233.233 0 01.017-.026c.016-.013.013-.006.011-.009l1.89-2.07a15.231 15.231 0 002.839-4.11 7.414 7.414 0 00.555-2.722 5.306 5.306 0 00-.763-2.89 3.907 3.907 0 00-2.466-1.7 4.759 4.759 0 00-2.717.224 5.04 5.04 0 00-2.061 1.496 5.76 5.76 0 00-1.099 2.033c-.241.823.038 1.4.388 1.529.368.137.784-.095 1.179-.691a4.755 4.755 0 012.346-1.951 2.551 2.551 0 011.298-.048 1.122 1.122 0 01.765.533 3.747 3.747 0 01.035 2.882 10.688 10.688 0 01-1.952 3.037c-.365.431-.756.86-1.152 1.296l-1.249 1.387c-.361.425-.721.851-1.062 1.28a5.735 5.735 0 00-.816 1.229 2.3 2.3 0 00-.134 1.93c.094.194.217.372.365.527.1.113.229.195.373.239.155.032.204-.017.361-.024.091-.009.244.045.571.043.089.005.177-.001.264-.018.107-.009.212-.028.315-.056l.375-.139c.14-.07.273-.151.399-.244l.365-.237c.1-.07.206-.131.317-.181a.828.828 0 01.131.007l.044.002c.028-.001.062.006.092.009.14.016.278.043.414.079.326.09.648.196.964.319.361.135.739.268 1.126.382.8.251 1.634.376 2.472.369a4.561 4.561 0 002.53-.754 1.609 1.609 0 00.721-1.109.633.633 0 00-.27-.639z" fill="#FFC652"/><path d="M370.599 143.219c-.87-.07-1.722-.28-2.595-.29-.401-.005-.801.006-1.201.024a9.173 9.173 0 00-.118-.991 3.637 3.637 0 00-.664-2.055c-.344-.385-1.558.002-1.741.335a5.394 5.394 0 00-.299 2.918c-.348.038-.695.079-1.042.141a5.867 5.867 0 00-2.343.592c-.418.269-.447 1.544.047 1.772a6.797 6.797 0 003.526.316c.006.049.007.096.014.144.163.765.416 1.508.751 2.214.232.522 1.651-.003 1.648-.326-.008-.569.214-1.238.248-1.908.007-.124.006-.252.009-.378.416-.04.832-.087 1.246-.152.875-.137 1.702-.478 2.565-.678.543-.125.535-1.631-.051-1.678z" fill="#49B3F7"/><path d="M390.037 139.086c-.946-1.678-2.196-3.364-3.894-4.184-.991-.45-1.798.542-1.174 1.328a26.443 26.443 0 012.586 4.068 13.63 13.63 0 011.381 4.662 15.311 15.311 0 01-.53 5.311 18.585 18.585 0 01-2.042 5.11c-.634.977.39 2.102 1.312 1.049a17.276 17.276 0 003.219-5.26c.671-1.901.969-3.913.878-5.927a13.738 13.738 0 00-1.736-6.157z" fill="#67D449"/><path d="M421.159 110.219a16.111 16.111 0 00-5.84-7.937c-5.104-3.782-11.694-4.195-16.8-1.046a19.433 19.433 0 00-5.96 5.45 16.155 16.155 0 00-.423 16.845 18.502 18.502 0 0012.431 8.665c.658.129 1.321.223 1.989.282a12.468 12.468 0 006.564-.978c2.725-1.314 4.984-4.209 6.651-8.234.939-2.271 2.957-8.087 1.388-13.047zm-3.356 12.153c-1.549 3.741-3.341 6-5.641 7.108a10.494 10.494 0 01-5.515.799 16.303 16.303 0 01-12.634-7.819 13.955 13.955 0 01.347-14.542 17.103 17.103 0 015.25-4.783 12.163 12.163 0 018.823-1.59 14.465 14.465 0 016.551 3.29 14.49 14.49 0 014.1 6.078c1.353 4.28-.445 9.439-1.281 11.459z" fill="#49B3F7"/><path d="M404.006 124.414c-1.396-.285-7.875-2.634-7.305-9.19a1.07 1.07 0 01.376-.719 1.057 1.057 0 01.773-.243 1.088 1.088 0 01.961 1.149c-.103 4.84 4.301 6.752 6.085 7.007 1.633.235 5.28 1.083 6.597-4.531a1.061 1.061 0 011.239-.815l.021.004c.272.064.508.231.659.466.151.235.205.52.151.794-1.131 6.95-7.464 6.249-8.986 6.178a3.92 3.92 0 01-.571-.1zm-1.225-12.716a1.984 1.984 0 01-.701-.287 1.502 1.502 0 01-.834-1.337 1.885 1.885 0 011.148-1.454.855.855 0 01.179-.968.845.845 0 01.973-.147 2.646 2.646 0 011.318 1.498 2.149 2.149 0 01-.664 2.356 1.727 1.727 0 01-1.419.339zm8.507 2.021a2.778 2.778 0 01-1.257-.597.848.848 0 01-.3-.613 1.729 1.729 0 01.169-.784 1.832 1.832 0 011.273-.974.855.855 0 01.643-1.012 1.738 1.738 0 011.882.819 2.046 2.046 0 01-.016 2.352 2.243 2.243 0 01-1.568.848 2.792 2.792 0 01-.826-.039z" fill="#49B3F7"/><path d="M594.001 132.655c.005 3.468-2.483 15.044-6.01 29.723.001.005-.005.006-.004.012-8.582 35.73-23.323 89.797-23.323 89.797-49.063.331-88.185-21.467-88.185-21.467-1.629-2.56-4.209-5.813-4.209-5.813 3.279-34.382 20.447-117.262 20.447-117.262 14.519-2.838 75.764 11.445 97.075 19.197 3.947 1.436 4.209 5.813 4.209 5.813z" fill="#9D2B38"/><path d="M589.791 126.843c.005 3.468-2.483 15.044-6.01 29.722.001.006-.005.007-.004.013-8.582 35.73-23.323 89.797-23.323 89.797-49.063.331-88.185-21.467-88.185-21.467-.889-1.931-.691-8.48.18-17.619 3.279-34.382 16.058-105.456 16.058-105.456 18.016-3.521 101.284 25.01 101.284 25.01z" fill="#FF6551"/><path d="M499.748 131.585c-.471-.679 1.471-21.551 2.94-21.716 1.468-.166 65.093 15.149 67.239 17.696 2.146 2.546-1.434 20.244-4.779 20.25-3.345.006-63.846-13.989-65.4-16.23z" fill="#864FF1"/><path d="M492.986 156.619c.105-.755 1.992-15.287 4.195-15.536 2.202-.249 35.034 7.387 36.159 9.119 1.125 1.733-.503 15.305-3.624 15.657-3.12.352-36.977-7.471-36.73-9.24z" fill="#FFC652"/><path d="M542.388 167.775c-1.418-1.938 1.158-14.448 2.543-15.349 1.385-.9 22.341 3.614 22.773 5.796.432 2.183-.486 13.815-2.362 13.655-1.877-.16-22.075-2.899-22.954-4.102zm-52.832 9.5s1.566-14.123 3.26-13.943c1.693.181 19.383 3.762 18.836 5.497-.548 1.736-1.466 13.368-2.751 13.513-1.284.145-19.533-3.506-19.345-5.067zm27.215 7.343s1.566-14.123 3.26-13.942c1.693.18 19.383 3.761 18.836 5.496-.548 1.736-1.466 13.368-2.751 13.513-1.285.145-19.533-3.506-19.345-5.067zm26.736 6.322s1.567-14.123 3.26-13.942c1.693.181 19.384 3.761 18.836 5.497-.548 1.735-1.466 13.367-2.75 13.513-1.285.145-19.534-3.507-19.346-5.068zm-57.504 7.569s1.567-14.123 3.26-13.942c1.693.18 19.384 3.761 18.836 5.496-.548 1.736-1.466 13.368-2.75 13.513-1.285.145-19.534-3.506-19.346-5.067zm27.215 7.343s1.566-14.123 3.26-13.942c1.693.181 19.384 3.761 18.836 5.497-.548 1.735-1.466 13.368-2.751 13.513-1.284.145-19.533-3.507-19.345-5.068zm26.737 6.322s1.566-14.123 3.259-13.942c1.693.181 19.384 3.762 18.836 5.497-.547 1.735-1.465 13.368-2.75 13.513-1.285.145-19.534-3.506-19.345-5.068zm-58.102 6.562s1.566-14.123 3.26-13.942c1.693.18 19.383 3.761 18.836 5.497-.548 1.735-1.466 13.367-2.751 13.512-1.285.145-19.533-3.506-19.345-5.067zm27.217 7.343s1.566-14.123 3.259-13.942c1.694.181 19.384 3.761 18.836 5.497-.547 1.735-1.465 13.368-2.75 13.513-1.285.145-19.534-3.507-19.345-5.068z" fill="#864FF1"/><path d="M535.806 232.402s1.566-14.123 3.26-13.943c1.693.181 19.383 3.762 18.836 5.497-.548 1.735-1.466 13.368-2.751 13.513-1.284.145-19.533-3.506-19.345-5.067z" fill="#49B3F7"/><path d="M565.149 147.816c-3.346.003-63.849-13.99-65.4-16.232a10.846 10.846 0 01-.008-2.64c9.781 3.7 60.749 15.428 63.811 15.426 2.705-.009 5.567-11.591 5.423-17.364.347.128.669.316.951.557 2.148 2.55-1.431 20.244-4.777 20.253z" fill="#2D7F75" opacity=".36"/><path d="M492.986 156.619c.105-.755 1.992-15.287 4.195-15.536 2.202-.249 35.034 7.387 36.159 9.119 1.125 1.733-.503 15.305-3.624 15.657-3.12.352-36.977-7.471-36.73-9.24z" fill="#FFC652"/><path d="M542.388 167.776c-1.418-1.939 1.158-14.449 2.543-15.349 1.385-.901 22.341 3.613 22.773 5.796.432 2.182-.486 13.815-2.362 13.655-1.877-.16-22.075-2.9-22.954-4.102zm-52.834 9.499s1.567-14.123 3.26-13.943c1.693.181 19.383 3.762 18.836 5.497-.548 1.736-1.466 13.368-2.751 13.513-1.284.145-19.533-3.506-19.345-5.067zm27.217 7.343s1.566-14.123 3.26-13.942c1.693.18 19.383 3.761 18.836 5.496-.548 1.736-1.466 13.368-2.751 13.513-1.285.145-19.533-3.506-19.345-5.067zm26.734 6.322s1.567-14.123 3.26-13.942c1.693.181 19.383 3.761 18.836 5.497-.548 1.735-1.466 13.367-2.751 13.513-1.284.145-19.533-3.507-19.345-5.068zm-57.502 7.569s1.567-14.123 3.26-13.942c1.693.181 19.384 3.762 18.836 5.497-.548 1.735-1.466 13.368-2.75 13.513-1.285.145-19.534-3.506-19.346-5.068zm27.215 7.343s1.566-14.123 3.26-13.942c1.693.181 19.384 3.761 18.836 5.497-.548 1.735-1.466 13.368-2.751 13.513-1.284.145-19.533-3.507-19.345-5.068zm26.737 6.323s1.566-14.123 3.259-13.942c1.693.18 19.384 3.761 18.836 5.496-.547 1.736-1.465 13.368-2.75 13.513-1.285.145-19.534-3.506-19.345-5.067zm-58.102 6.561s1.566-14.123 3.26-13.942c1.693.18 19.383 3.761 18.836 5.497-.548 1.735-1.466 13.367-2.751 13.512-1.285.145-19.533-3.506-19.345-5.067zm27.215 7.343s1.566-14.123 3.259-13.942c1.694.181 19.384 3.761 18.836 5.497-.547 1.735-1.465 13.368-2.75 13.513-1.285.145-19.534-3.507-19.345-5.068zm26.736 6.323s1.566-14.123 3.26-13.943c1.693.181 19.383 3.762 18.836 5.497-.548 1.735-1.466 13.368-2.751 13.513-1.284.145-19.533-3.506-19.345-5.067z" fill="#49B3F7"/><path d="M529.719 165.861c-3.12.353-36.981-7.475-36.733-9.244.024-.159.125-.92.29-2.033 7.835 2.838 31.661 8.191 34.249 7.899 2.458-.278 3.989-8.766 3.973-13.194a4.964 4.964 0 011.843.916c1.125 1.728-.503 15.304-3.622 15.656zm35.619 6.016c-1.872-.157-22.074-2.898-22.953-4.104a5.138 5.138 0 01-.413-2.691c5.141 1.335 19.605 3.285 21.173 3.417 1.537.134 2.434-7.66 2.476-11.678 1.23.52 2.004 1.001 2.085 1.403.427 2.181-.489 13.815-2.368 13.653zm-53.687-3.051c-.547 1.736-1.469 13.371-2.752 13.515-1.282.145-19.533-3.505-19.347-5.067 0 0 .091-.802.244-2.016 4.982 1.698 15.926 3.816 16.91 3.705 1.05-.118 1.855-7.921 2.417-11.713 1.643.582 2.666 1.137 2.528 1.576zm27.217 7.345c-.547 1.736-1.469 13.371-2.752 13.516-1.283.145-19.533-3.506-19.347-5.068 0 0 .091-.801.244-2.015 4.982 1.697 15.925 3.816 16.909 3.704 1.05-.118 1.86-7.933 2.418-11.719 1.643.588 2.666 1.144 2.528 1.582zm26.731 6.324c-.547 1.736-1.464 13.364-2.747 13.509-1.288.146-19.533-3.505-19.347-5.067 0 0 .091-.802.244-2.016 4.976 1.699 15.92 3.817 16.91 3.705 1.05-.119 1.854-7.927 2.412-11.712 1.637.588 2.666 1.143 2.528 1.581zm-57.502 7.57c-.547 1.736-1.464 13.364-2.753 13.509-1.282.145-19.533-3.505-19.341-5.068 0 0 .091-.802.244-2.015 4.976 1.698 15.92 3.816 16.904 3.705 1.056-.119 1.86-7.927 2.418-11.713 1.637.589 2.666 1.143 2.528 1.582zm27.215 7.339c-.548 1.736-1.464 13.37-2.752 13.516-1.283.144-19.534-3.506-19.342-5.068 0 0 .091-.802.244-2.016 4.976 1.698 15.92 3.816 16.904 3.705 1.056-.119 1.859-7.939 2.417-11.719 1.637.589 2.666 1.144 2.529 1.582zm26.74 6.324c-.548 1.736-1.47 13.37-2.752 13.515-1.283.145-19.534-3.505-19.347-5.067 0 0 .09-.802.243-2.016 4.982 1.698 15.926 3.816 16.91 3.705 1.05-.119 1.859-7.939 2.417-11.719 1.643.588 2.666 1.143 2.529 1.582zm-58.106 6.561c-.547 1.736-1.463 13.37-2.746 13.515-1.288.145-19.533-3.505-19.347-5.067 0 0 .091-.802.244-2.016 4.976 1.698 15.92 3.816 16.91 3.705 1.05-.119 1.853-7.939 2.417-11.719 1.637.588 2.66 1.143 2.522 1.582zm27.215 7.346c-.547 1.735-1.464 13.37-2.746 13.514-1.289.146-19.534-3.511-19.347-5.067 0 0 .091-.802.244-2.016 4.976 1.699 15.919 3.817 16.909 3.705 1.05-.118 1.853-7.938 2.417-11.719 1.638.589 2.661 1.144 2.523 1.583zm26.739 6.323c-.547 1.736-1.464 13.364-2.753 13.509-1.282.145-19.533-3.505-19.341-5.067 0 0 .091-.802.244-2.016 4.976 1.698 15.92 3.816 16.904 3.705 1.056-.119 1.859-7.933 2.424-11.714 1.637.589 2.66 1.144 2.522 1.583z" fill="#2D7F75" opacity=".36"/><path d="M583.777 156.578c-8.582 35.73-23.323 89.797-23.323 89.797-49.063.331-88.185-21.467-88.185-21.467-.889-1.93-.691-8.48.18-17.619 0 0 73.021 40.457 111.328-50.711z" fill="#2D7F75" opacity=".36"/><path d="M234.199 326.742l3.832-25.767 287.355 16.995 1.881 2.782-1.951 28.55-289.236-19.777-1.881-2.783zm277.69 8.38a4.44 4.44 0 004.285-2.458 4.445 4.445 0 00-.631-4.902 4.447 4.447 0 10-3.654 7.36z" fill="#2435A1"/><path d="M236.15 298.192l289.236 19.778-1.951 28.55-289.236-19.778 1.951-28.55zm273.896 38.538a4.44 4.44 0 004.285-2.459 4.446 4.446 0 10-7.332.945 4.444 4.444 0 003.047 1.514z" fill="#49B3F7"/><path d="M514.593 333.589a4.433 4.433 0 01-8.624-.59l-270.932-18.526-.838 12.269 289.236 19.778.838-12.269-9.68-.662z" fill="#378FDD"/><path d="M490.819 315.606l-.975 14.275 2.986.204.976-14.275-2.987-.204zm-25.865-1.769l-.975 14.275 2.986.205.976-14.275-2.987-.205zm-25.867-1.768l-.976 14.275 2.987.204.975-14.275-2.986-.204zm-25.866-1.769l-.975 14.275 2.987.204.975-14.275-2.987-.204zm-25.867-1.769l-.975 14.275 2.987.204.975-14.275-2.987-.204zm-25.867-1.769l-.975 14.275 2.986.204.976-14.275-2.987-.204zm116.48 7.965l-.653 9.555 2.987.204.653-9.554-2.987-.205zm-25.867-1.769l-.653 9.555 2.987.204.653-9.554-2.987-.205zm-25.865-1.768l-.653 9.555 2.987.204.653-9.555-2.987-.204zm-25.867-1.769l-.653 9.555 2.986.204.653-9.555-2.986-.204zm-25.868-1.769l-.652 9.555 2.986.204.653-9.555-2.987-.204z" fill="#fff"/><path d="M387.352 308.531l-.975 14.275 2.987.204.975-14.275-2.987-.204zm-25.865-1.768l-.975 14.275 2.986.204.976-14.275-2.987-.204zm-25.869-1.769l-.975 14.275 2.986.204.976-14.275-2.987-.204zm-25.865-1.769l-.976 14.275 2.987.204.975-14.275-2.986-.204zm-25.867-1.769l-.976 14.275 2.987.205.975-14.275-2.986-.205zm-25.868-1.769l-.975 14.275 2.987.204.975-14.275-2.987-.204zm116.482 7.965l-.652 9.555 2.986.204.653-9.555-2.987-.204zm-25.867-1.769l-.653 9.555 2.987.204.653-9.555-2.987-.204zm-25.867-1.768l-.653 9.554 2.987.205.653-9.555-2.987-.204zm-25.865-1.769l-.653 9.555 2.987.204.653-9.555-2.987-.204zm-25.867-1.769l-.653 9.555 2.986.204.653-9.555-2.986-.204z" fill="#fff"/><path d="M196.541 340.169l-2.133 17.503 101.352 12.359 2.132-17.503-101.351-12.359z" fill="#E94B36"/><path d="M195.953 344.989l-.93 7.628 101.352 12.359.929-7.628-101.351-12.359z" fill="#FF6551"/><path d="M196.54 340.169l-.587 4.82 101.351 12.359.588-4.819-101.352-12.36z" fill="#E94B36"/><path d="M297.893 352.528l-2.133 17.503 19.609-5.188a1.679 1.679 0 00.341-3.11l-17.817-9.205z" fill="#FFEBDD"/><path d="M308.732 358.129l-1.066 8.752 7.702-2.038a1.672 1.672 0 001.237-1.438 1.675 1.675 0 00-.897-1.672l-6.976-3.604z" fill="#5B5B5C"/><path d="M196.541 340.169l-2.133 17.503 4.091.499 2.133-17.503-4.091-.499z" fill="#2435A1"/><path d="M187.466 352.942l1.201-9.85a3.85 3.85 0 014.291-3.36l3.583.437-2.133 17.503-3.583-.437a3.857 3.857 0 01-3.359-4.293z" fill="#F7A845"/><path d="M111.641 339.893l-77.859 18.024a9.529 9.529 0 01-10.41-3.633 9.529 9.529 0 01-1.56-3.568L0 252.494l97.396-27.063 21.812 101.833a10.809 10.809 0 01-7.567 12.629z" fill="#C1272D"/><path d="M121.012 340.04l-79.724 18.542a10.38 10.38 0 01-12.78-7.228L.981 252.221l99.73-27.712 27.525 102.745a10.382 10.382 0 01-7.225 12.786z" fill="#FF6551"/><path d="M118.426 336.251l-75.797 17.451a9.873 9.873 0 01-12.151-6.872l-26.17-94.25 94.818-26.347 26.169 97.862a9.876 9.876 0 01-6.869 12.156z" fill="#ECB891"/><path d="M118.106 334.484l-74.539 17.101a9.705 9.705 0 01-11.95-6.757L5.883 252.143l93.242-25.91 25.735 96.297a9.708 9.708 0 01-6.754 11.954z" fill="#FFEBDD"/><path d="M16.023 267.878l82.526-22.932M20.78 285.005l82.525-22.21m-77.77 39.337l82.526-21.487M30.29 319.259l82.525-21.488m-77.77 38.615l82.526-20.765" stroke="#47A7E5" stroke-width="2.031" stroke-miterlimit="10"/><path d="M85.816 244.052l22.438 80.812" stroke="#FF6551" stroke-width="2.031" stroke-miterlimit="10"/><path d="M20.229 258.349a3.214 3.214 0 10-.001-6.427 3.214 3.214 0 000 6.427z" fill="#C1272D"/><path d="M22.09 257.751a2.574 2.574 0 01-2.113.587s-7.105-16.115 2.052-18.659c5.034-1.399 7.61 2.034 8.463 4.342l-2.112.587c-.072-.191-1.992-3.857-5.96-2.754-4.845 1.346-1.406 11.738-.33 15.897z" fill="#864FF1"/><path d="M36.412 253.853a3.214 3.214 0 10-.001-6.43 3.214 3.214 0 00.001 6.43z" fill="#C1272D"/><path d="M38.274 253.254a2.576 2.576 0 01-2.114.588s-7.104-16.115 2.053-18.66c5.034-1.399 7.609 2.034 8.463 4.343l-2.112.587c-.072-.191-1.992-3.857-5.96-2.755-4.846 1.347-1.406 11.738-.33 15.897z" fill="#864FF1"/><path d="M52.594 249.356a3.214 3.214 0 10-.001-6.427 3.214 3.214 0 000 6.427z" fill="#C1272D"/><path d="M54.456 248.757a2.577 2.577 0 01-2.114.588s-7.104-16.115 2.053-18.659c5.033-1.399 7.608 2.034 8.463 4.342l-2.113.587c-.071-.191-1.992-3.857-5.96-2.754-4.845 1.346-1.406 11.738-.329 15.896z" fill="#864FF1"/><path d="M68.775 244.859a3.214 3.214 0 10-.001-6.427 3.214 3.214 0 00.001 6.427z" fill="#C1272D"/><path d="M70.638 244.26a2.576 2.576 0 01-2.115.588s-7.104-16.115 2.053-18.659c5.034-1.399 7.609 2.034 8.463 4.342l-2.112.587c-.072-.191-1.992-3.857-5.96-2.754-4.845 1.346-1.406 11.738-.33 15.896z" fill="#864FF1"/><path d="M84.96 240.362a3.214 3.214 0 10-.002-6.427 3.214 3.214 0 00.001 6.427z" fill="#C1272D"/><path d="M86.821 239.764a2.566 2.566 0 01-2.114.587s-7.104-16.115 2.053-18.659c2.84-.789 5.823 2.53 6.677 4.839l-2.112.587c-.072-.192-1.883-3.888-4.175-3.251-4.845 1.346-1.406 11.738-.329 15.897zm-73.491 7.807a40.427 40.427 0 016.21 9.625l.698-3.049s-2.459-5.767-5.155-8.241a1.218 1.218 0 00-.875-.313 1.218 1.218 0 00-.838.4 1.208 1.208 0 00-.04 1.578z" fill="#864FF1"/><path d="M26.94 275.201a2.297 2.297 0 00.013 1.568 1.473 1.473 0 001.72.538c.371-.141.709-.36.99-.642a16.245 16.245 0 004.547-6.498l.138 4.133a.818.818 0 00.325.769 2.005 2.005 0 001.738-.31c2.323-1.379 2.729-3.663 2.901-5.62l1.339 3.195a1.297 1.297 0 001.505.923 1.92 1.92 0 00.922-.634 5.862 5.862 0 001.576-3.274c-.164 1.414 2.259 2.067 4.172 1.421a7.104 7.104 0 003.942-3.505 3.637 3.637 0 00-.534 2.278 1.765 1.765 0 002.18 1.03 3.154 3.154 0 001.921-1.607 6.72 6.72 0 00.93-3.045c-.698 1.491 1.69 2.604 3.72 1.941 2.029-.663 3.21-2.457 3.051-3.903.144 1.073 1.024 2.418 2.516 1.873a3.009 3.009 0 001.307-1.099l4.24-5.433 1.906 3.046a1.278 1.278 0 001.542.649 1.41 1.41 0 00.657-.659 11.84 11.84 0 001.476-3.991l1.898 3.516a1.087 1.087 0 00.761.667c.418.076 1.051-.288.877-.563M32.98 289.009c-.48 1.521-2.28 3.914-.708 5.022.902.635 2.473.702 3.851.274 2.935-.912 4.322-3.426 5.267-5.576a3.857 3.857 0 00.241 2.094 2.2 2.2 0 002.159 1.038c1.38-.115 2.447-1.152 3.254-2.062.48.787 2.003 1.049 3.234.557 1.232-.492 1.965-1.655 1.557-2.47.6.692 2.411.02 3.07-.832.66-.853.788-1.836 1.607-2.63.97.069.752 1.121.222 1.807-.53.686-1.16 1.603-.462 2.02.226.114.476.174.729.176 2.263.13 4.376-1.556 5.89-3.046.763-.752 1.558-1.595 1.517-2.424a2.468 2.468 0 00-.835-1.438 4.43 4.43 0 00-1.508 3.024 1.234 1.234 0 00.316.946c.727.705 4.604.425 5.73-.099 1.826-.85 1.958-2.629 2.986-3.989a5.38 5.38 0 001.823 2.933 9.643 9.643 0 003.667-3.614c.107.851 1.92.866 2.918.207a4.292 4.292 0 001.638-2.517l.569 1.904c.118.395.333.853.913.872a1.99 1.99 0 001.493-.914 7.645 7.645 0 001.703-5.111l.26 2.905c.08.895.356 1.955 1.572 2.085M33 308.397c.812 1.739.499 3.871-.847 5.764l-.626-.67 3.866-4.535c.128-.174.3-.311.5-.396.642-.23.933.429 1.494.606a1.53 1.53 0 001.75-1.088c.045-.606-.495-1.061-1.01-1.464a14.432 14.432 0 001.056 6.196c2.446-1.942 4.057-4.385 4.461-6.766a4.652 4.652 0 013.098 3.59 7.298 7.298 0 002.192-5.384 33.794 33.794 0 011.928 5.431l.047-3.364a1.253 1.253 0 01.217-.816c.387-.369.87-.623 1.393-.734a11.387 11.387 0 014.412-.726c1.403.155 2.51 1.122 1.957 2.178-.987.579-2.397.174-2.63-.594-.235-.768.4-1.676 1.239-2.366a6.224 6.224 0 014.056-1.475c1.423.088 2.427 1.173 1.733 2.197a37.272 37.272 0 012.31-3.772c.284-.494.74-.868 1.28-1.051a2.25 2.25 0 011.263.099 4.481 4.481 0 013.19 3.022c-.446-.811.527-2.061 1.85-2.287 1.324-.225 2.403.789 1.729 1.689l-.608-2.595a6.402 6.402 0 003.197 1.451l4.581-4.375c.177-.197.404-.343.657-.423a.952.952 0 01.948.359 2.962 2.962 0 01.087 3.621 14.747 14.747 0 011.352-3.826 5.583 5.583 0 002.07 1.334 3.737 3.737 0 002.95-.326c.854-.549.984-1.625.087-1.871a11.887 11.887 0 004.342-4.295m-57.198 38.006c-.166-.262.613-.233.864-.017 1.154.997 3.891.366 5.296-.859 1.404-1.225 1.83-2.77 2.193-4.22 1.341.731-.428 2.91.939 3.618.902.468 2.52-.227 3.065-1.091a3.122 3.122 0 00.137-2.591c.798 1.276 3.418 1.707 5.258.676 1.84-1.031 1.829-3.336-.154-3.604-.79.751-1.275 1.69-1.047 2.486.229.795 1.295 1.367 2.495 1.167 1.2-.201 2.249-1.289 1.817-2.014 2.492.641 5.123.483 7.52-.453l-2.612 1.722c.14-1.917 1.41-3.946 3.438-5.497.769-.587 2.058-1.137 2.71-.679.457.321.255.927.03 1.437l-1.733 3.921c2.164-1.071 3.809-2.766 4.366-4.501 2.389 1.494 7.483.045 8.7-2.474.106-.221.177-.482-.02-.623a1.093 1.093 0 00-.865.007c-1.523.49-2.33 2.013-1.598 2.884.731.87 2.697.94 4.076.21 1.378-.73 2.03-2.092 1.581-3.085 1.54.142 3.085.201 4.63.175a5.549 5.549 0 01.633-3.169 7.307 7.307 0 011.394 3.077l1.42-2.943.312.995" stroke="#E2B9A7" stroke-width="2.42" stroke-linecap="round" stroke-linejoin="round"/><path d="M60.9 180.936l8.659 3.418a.747.747 0 00.848-.221.747.747 0 00.047-.876l-4.746-7.3a.744.744 0 01.08-.914l4.778-5.089a.743.743 0 00-.75-1.222l-6.863 2.017a.739.739 0 01-.831-.308l-3.414-5.251a.742.742 0 00-1.351.263L56 172.376a.741.741 0 01-.52.57l-6.423 1.888a.737.737 0 00-.533.679.744.744 0 00.47.725l5.225 2.062a.745.745 0 01.456.834l-1.422 7.258a.742.742 0 001.27.652l5.562-5.925a.743.743 0 01.814-.183z" fill="#864FF1"/><path d="M21.481 151.917l8.66 3.417a.74.74 0 00.848-.221.744.744 0 00.047-.875l-4.747-7.301a.742.742 0 01.082-.913l4.777-5.09a.743.743 0 00-.75-1.221l-6.862 2.017a.746.746 0 01-.832-.308l-3.414-5.251a.744.744 0 00-1.147-.121.745.745 0 00-.205.383l-1.356 6.923a.743.743 0 01-.52.57l-6.423 1.888a.745.745 0 00-.063 1.404l5.225 2.062a.742.742 0 01.456.834l-1.422 7.259a.743.743 0 001.27.651l5.562-5.925a.742.742 0 01.814-.182z" fill="#FFC652"/><path d="M9.444 206.249l.61 9.293a.745.745 0 00.563.672.739.739 0 00.811-.331l4.57-7.412a.738.738 0 01.86-.317l6.642 2.147a.74.74 0 00.85-.301.744.744 0 00-.067-.9l-4.755-5.345a.742.742 0 01-.077-.884l3.287-5.331a.742.742 0 00-.814-1.11l-6.837 1.73a.736.736 0 01-.737-.226l-4.45-5.003a.739.739 0 00-.842-.192.743.743 0 00-.454.734l.369 5.608a.745.745 0 01-.56.769l-7.167 1.814a.744.744 0 00-.046 1.428l7.731 2.499a.746.746 0 01.513.658z" fill="#FF6551"/><path d="M356.021 50.598l-8.66 3.417a.743.743 0 01-.895-1.096l4.746-7.3a.74.74 0 00-.081-.914l-4.777-5.09a.744.744 0 01.275-1.202.74.74 0 01.475-.019l6.862 2.017a.742.742 0 00.832-.308l3.414-5.251a.745.745 0 011.147-.12.737.737 0 01.204.382l1.357 6.923a.739.739 0 00.52.57l6.423 1.888a.743.743 0 01.063 1.404l-5.225 2.062a.74.74 0 00-.457.834l1.423 7.259a.746.746 0 01-.856.875.745.745 0 01-.415-.224l-5.562-5.925a.737.737 0 00-.813-.182z" fill="#864FF1"/><path d="M391.841 16.184l-8.66 3.418a.742.742 0 01-.895-1.097l4.747-7.3a.745.745 0 00-.081-.914l-4.778-5.09a.737.737 0 01-.197-.433.741.741 0 01.948-.788l6.862 2.017a.743.743 0 00.832-.308l3.413-5.25a.747.747 0 01.764-.325.743.743 0 01.588.587l1.356 6.923a.744.744 0 00.52.57l6.423 1.888a.739.739 0 01.533.68.744.744 0 01-.469.724l-5.226 2.062a.743.743 0 00-.456.834l1.422 7.258a.739.739 0 01-.39.804.742.742 0 01-.88-.152l-5.562-5.925a.743.743 0 00-.814-.183z" fill="#FFC652"/><path d="M428.945 40.617l-.611 9.293a.748.748 0 01-.562.673.744.744 0 01-.812-.331l-4.57-7.413a.74.74 0 00-.86-.317l-6.641 2.147a.742.742 0 01-.783-1.2l4.754-5.346a.745.745 0 00.077-.884l-3.287-5.33a.748.748 0 01.034-.83.74.74 0 01.781-.281l6.836 1.73a.742.742 0 00.737-.226l4.451-5.003a.742.742 0 011.296.543l-.369 5.607a.746.746 0 00.559.77l7.167 1.814a.742.742 0 01.047 1.427l-7.732 2.5a.741.741 0 00-.512.657z" fill="#FF6551"/><path d="M210.094 249.613c-2.512-3.803-7.246-4.242-10.687-6.795-4.185-3.103-5.785-8.548-7.533-13.212l-1.447-3.861c-.479-1.278-.833-2.87-1.683-3.961-1.483-1.901-4.082-.977-5.997-.465a562.318 562.318 0 00-37.505 11.457 1.184 1.184 0 00-.708 1.507l11.912 27.607a1.193 1.193 0 00.656.645 1.21 1.21 0 00.919-.009 1.084 1.084 0 00.914.046l25.368-9.315c2.012-.738 4.022-1.595 6.199-1.612 2.027-.017 4.064.328 6.09.424 4.22.195 8.449-.006 12.63-.602a1.186 1.186 0 00.963-.679 1.2 1.2 0 00-.091-1.175zm-20.207-.305c-2.048.222-4.05.752-5.94 1.572l-25.632 9.411-11.09-25.702a571.5 571.5 0 0132.264-9.953 578.67 578.67 0 014.056-1.101c.857-.23 2.632-1.035 3.389-.257a4.96 4.96 0 01.636 1.549l.723 1.931 1.527 4.075c1.68 4.482 3.287 9.293 6.805 12.71a19.382 19.382 0 005.939 3.582 17.792 17.792 0 014.169 2.277 65.89 65.89 0 01-10.321.319c-2.164-.108-4.356-.523-6.525-.413z" fill="#49B3F7"/><path d="M179.717 231.257l-21.228 6.093c-1.457.419-.653 2.632.798 2.216l21.227-6.094c1.457-.418.653-2.632-.797-2.215zm4.073 4.441l-27.689 8.6c-1.448.45-.647 2.664.797 2.216l27.69-8.6c1.447-.45.647-2.664-.798-2.216zm1.509 6.875a124.908 124.908 0 00-24.944 6.758c-1.411.545-.619 2.763.797 2.215a121.888 121.888 0 0124.328-6.624c1.486-.243 1.315-2.592-.181-2.349zM281.125 36.82a1.071 1.071 0 01-.786-.341 158.626 158.626 0 00-10.767-10.506c-1.859.475-3.323.898-4.865 1.343a179.162 179.162 0 01-8.602 2.3 1.074 1.074 0 01-1.034-1.78c4.682-4.984 7.027-7.913 9.743-11.305l.934-1.166c-.611-1.826-2.61-7.729-4.042-11.113a1.073 1.073 0 011.528-1.347 67.615 67.615 0 0011.25 5.225l8.61-7.754a1.072 1.072 0 011.701.366c.091.208.114.44.066.662l-2.485 11.347a72.912 72.912 0 0112.222 3.982 1.072 1.072 0 01.438 1.632 1.076 1.076 0 01-.517.374 173.741 173.741 0 01-13.389 3.906l1.064 13.014a1.064 1.064 0 01-.28.815 1.065 1.065 0 01-.789.347zm-11.267-13.1c.261 0 .513.095.709.268a160.62 160.62 0 019.24 8.813l-.891-10.892a1.077 1.077 0 01.816-1.132 171.867 171.867 0 0011.307-3.16 70.783 70.783 0 00-10.166-2.999 1.073 1.073 0 01-.823-1.28l1.999-9.13-6.602 5.946a1.076 1.076 0 01-1.07.217 69.791 69.791 0 01-9.579-4.146c1.515 4 3.091 8.77 3.173 9.02a1.076 1.076 0 01-.183 1.01l-1.299 1.62c-2.224 2.779-4.203 5.25-7.399 8.776 2.004-.526 3.53-.966 5.021-1.397 1.709-.494 3.323-.96 5.487-1.502.085-.021.172-.032.26-.032zm283.349 283.595a.92.92 0 01-.524-.521 137.19 137.19 0 00-5.348-11.827 130.958 130.958 0 00-4.33-.451c-2.033-.187-4.134-.38-7.634-.858a.924.924 0 01-.79-.776.932.932 0 01.518-.979c5.328-2.531 8.133-4.147 11.38-6.018l1.117-.643c.083-1.658.332-7.03.245-10.198a.924.924 0 011.178-.917.927.927 0 01.473.315 58.358 58.358 0 007.396 7.736l9.354-3.522a.928.928 0 011.051.291.924.924 0 01.045 1.09l-5.562 8.335a62.93 62.93 0 018.568 7.043.93.93 0 01.199 1.033.924.924 0 01-.894.554 149.882 149.882 0 01-11.983-1.074l-3.235 10.791a.922.922 0 01-1.224.596zm-4.934-14.068c.21.082.382.237.486.438a138.728 138.728 0 014.652 9.986l2.708-9.031a.926.926 0 011.011-.652c3.33.452 6.709.793 10.077 1.017a60.997 60.997 0 00-7.225-5.606.927.927 0 01-.259-1.287l4.475-6.707-7.172 2.701a.925.925 0 01-.927-.162 60.208 60.208 0 01-6.393-6.344c-.041 3.69-.274 8.018-.286 8.245a.923.923 0 01-.465.754c-.536.307-1.049.603-1.551.892-2.661 1.533-5.028 2.897-8.703 4.724 1.775.208 3.139.333 4.473.456 1.528.141 2.971.274 4.88.519a.93.93 0 01.219.057zM158.199 364.09a10.153 10.153 0 00-11.57-3.422 1.328 1.328 0 00-.873 1.435 6.471 6.471 0 00-4.756 5.525c-.489 4.369 2.745 7.917 6.516 9.55 3.827 1.657 8.27 2.117 10.913-1.697a10.118 10.118 0 00-.23-11.391zm-3.179 11.229c-1.638 1.093-3.811.455-5.52-.137a9.741 9.741 0 01-4.703-3.146c-1.081-1.458-1.674-3.516-.932-5.25a3.647 3.647 0 014.015-2.231 1.367 1.367 0 001.311-.47 1.366 1.366 0 00.209-1.376 7.324 7.324 0 016.835 3.082c1.852 2.774 1.801 7.516-1.215 9.528zm-8.052-36.352a7.073 7.073 0 00-8.916 2.049 1.1 1.1 0 00.651 1.77 5.795 5.795 0 001.323 7.239 6.216 6.216 0 002.48 1.215 6.216 6.216 0 005.261-1.148 6.239 6.239 0 001.749-2.138c1.538-3.096.589-7.292-2.548-8.987zm.585 6.813c-.505 2.273-3.042 3.892-5.242 2.697a3.397 3.397 0 01-.392-5.701 1.418 1.418 0 00.338-1.87 4.176 4.176 0 015.296 4.874zm22.192.877c-1.372-3.514-5.452-6.5-9.168-4.813-.131.06-.252.143-.355.243a4.45 4.45 0 00-1.429.771 5.217 5.217 0 00-1.722 4.728 7.283 7.283 0 007.277 6.175c3.548-.128 6.805-3.5 5.397-7.104zm-6.401 4.43a4.66 4.66 0 01-3.728-3.959c-.208-2.91 2.594-2.876 4.707-2.613.138.017.277.011.412-.018a6.47 6.47 0 012.688 3.327c.637 2.291-2.223 3.634-4.079 3.263zM88.415 112.205a1.148 1.148 0 01-.814-.34L74.719 98.78l-14.997 6.468a1.134 1.134 0 01-1.292-.276 1.14 1.14 0 01-.166-1.31l7.421-13.908-9.645-11.291a1.142 1.142 0 01.992-1.877l14.532 1.593L80.81 59.61a1.142 1.142 0 012.15.332l3.117 19.746 15.47 5.38a1.14 1.14 0 01.767 1.081 1.144 1.144 0 01-.773 1.078l-14.17 4.847 2.177 18.856a1.144 1.144 0 01-1.134 1.274zM74.985 96.28a1.147 1.147 0 01.813.34L86.9 107.896l-1.902-16.472a1.142 1.142 0 01.764-1.213l11.908-4.073-12.988-4.517a1.138 1.138 0 01-.752-.9l-2.667-16.894-8.01 16.084a1.137 1.137 0 01-1.147.625L59.647 79.17l8.28 9.693a1.14 1.14 0 01.138 1.28l-6.252 11.715 12.72-5.485a1.11 1.11 0 01.451-.093zm440.723-43.156l21.904-2.813c1.503-.193 1.642 2.158.144 2.35l-21.904 2.814c-1.503.193-1.641-2.158-.144-2.35zm-1.984 5.692l28.83-3.072c1.507-.16 1.648 2.19.144 2.35l-28.83 3.072c-1.507.16-1.648-2.19-.144-2.35zm1.337 6.911a124.908 124.908 0 0125.58-3.676c1.512-.058 1.662 2.292.145 2.35a121.843 121.843 0 00-24.961 3.554c-1.461.366-2.234-1.86-.764-2.228z" fill="#49B3F7"/><path d="M522.784 89.556a1.144 1.144 0 01-1.11-1.408 51.636 51.636 0 001.402-10.661c-4-.173-8.5-.64-12.601-2.304-4.945-2.01-8.648-5.59-10.157-9.822a13.44 13.44 0 01.78-11.293c3.752-6.994 12.971-11.43 19.726-13.106 9.033-2.24 18.131-2.504 23.146-1.77l.35.05c4.463.65 9.08 1.321 12.751 4.705 4.045 3.727 5.286 10.318 3.018 16.026-1.874 4.721-5.967 8.877-11.523 11.7-4.662 2.37-9.741 3.614-14.687 4.77-1.141 5.463-5.754 9.357-10.406 12.881a1.14 1.14 0 01-.689.232zm-1.411-46.377c-6.798 1.686-15.083 6.04-18.264 11.969a11.253 11.253 0 00-.642 9.446c1.292 3.62 4.523 6.709 8.867 8.472 4.145 1.683 8.669 2.042 12.939 2.18a1.139 1.139 0 011.104 1.147 53.944 53.944 0 01-.838 9.198c3.554-2.907 6.627-6.154 7.216-10.251a1.141 1.141 0 01.872-.95c5.044-1.176 10.259-2.392 14.905-4.753 5.06-2.572 8.767-6.303 10.434-10.507 1.927-4.849.922-10.402-2.442-13.504-3.151-2.904-7.222-3.496-11.533-4.124l-.351-.051c-4.634-.676-13.58-.424-22.267 1.728z" fill="#49B3F7"/><path d="M460.134 298.051l-114.632-2.89a7.86 7.86 0 01-7.861-7.864v-80.19a7.867 7.867 0 017.861-7.865H458.69a7.863 7.863 0 017.862 7.865l1.444 83.079a7.872 7.872 0 01-2.303 5.561 7.859 7.859 0 01-5.559 2.304z" fill="#243976"/><path d="M458.015 295.931l-114.632-2.889a7.868 7.868 0 01-7.862-7.865v-80.19c0-2.086.829-4.086 2.303-5.561a7.859 7.859 0 015.559-2.303h113.188c2.085 0 4.085.828 5.559 2.303a7.868 7.868 0 012.303 5.561l1.444 83.079a7.87 7.87 0 01-4.853 7.266 7.846 7.846 0 01-3.009.599z" fill="#49B3F7"/><path d="M456.571 197.123h-20.002c6.031 1.887 14.853 6.305 18.548 21.063 2.983 11.911-49.574 46.621-80.621 53.845-12.748 3.036-27.026 7.726-38.975 2.444v10.702a7.87 7.87 0 004.854 7.266 7.86 7.86 0 003.008.599l114.632 2.889a7.862 7.862 0 007.862-7.865l-1.444-83.079a7.865 7.865 0 00-7.862-7.864z" fill="#378FDD"/><path d="M425.676 197.123h-82.293a7.859 7.859 0 00-5.559 2.303 7.868 7.868 0 00-2.303 5.561v37.96c13.286-24.865 61.471-39.165 90.155-45.824z" fill="#6CC1F9"/><path d="M456.643 293.451l-111.887-2.889a6.437 6.437 0 01-6.436-6.438v-67.682h123.315l1.444 70.571a6.438 6.438 0 01-6.436 6.438zm.89-85.639a2.191 2.191 0 100-4.383 2.191 2.191 0 000 4.383zm-7.354 0a2.191 2.191 0 100-4.383 2.191 2.191 0 000 4.383zm-7.578 0a2.191 2.191 0 100-4.383 2.191 2.191 0 000 4.383zm-11.917-2.192H368.17a3.499 3.499 0 000 6.998h62.514a3.499 3.499 0 000-6.998z" fill="#fff"/><path d="M361.409 224.731h-7.374a2.75 2.75 0 00-2.75 2.751v7.377a2.75 2.75 0 002.75 2.751h7.374a2.75 2.75 0 002.75-2.751v-7.377a2.75 2.75 0 00-2.75-2.751zm0 22.854h-7.374a2.75 2.75 0 00-2.75 2.751v7.377a2.75 2.75 0 002.75 2.751h7.374a2.75 2.75 0 002.75-2.751v-7.377a2.75 2.75 0 00-2.75-2.751zm0 22.853h-7.374a2.75 2.75 0 00-2.75 2.751v7.377a2.75 2.75 0 002.75 2.751h7.374a2.75 2.75 0 002.75-2.751v-7.377a2.75 2.75 0 00-2.75-2.751z" stroke="#FF6551" stroke-width="2.031" stroke-miterlimit="10"/><path d="M349.836 227.107l7.505 7.508 8.618-11.259" stroke="#2435A1" stroke-width="2.943" stroke-miterlimit="10"/><path d="M375.666 227.211h73.352m-73.352 7.919h64.425m-64.425 14.935h73.352m-73.352 7.918h42.601m-42.601 14.935h73.352m-73.352 7.919h64.425" stroke="#BFBFBF" stroke-width="2.846" stroke-miterlimit="10"/></svg>