<svg viewBox="0 0 71 70" xmlns="http://www.w3.org/2000/svg" xmlns:xlink="http://www.w3.org/1999/xlink"><style>:root&gt;svg{display:none}:root&gt;svg:target{display:block}</style><svg fill="none" viewBox="0 0 70 70" id="icons--icon-family" xmlns="http://www.w3.org/2000/svg"><path fill-rule="evenodd" clip-rule="evenodd" d="M22.874 32.778c0 .265.092.525.258.732a1.025 1.025 0 11-1.597 1.286 3.228 3.228 0 01-.712-2.018v-2.28a9.744 9.744 0 01-6.717 0v2.28c0 1.29-.776 2.443-1.934 2.948l4.17 2.383a2.271 2.271 0 002.245 0l1.468-.838a1.025 1.025 0 111.018 1.78l-1.468.839c-.66.377-1.4.566-2.14.566-.74 0-1.48-.189-2.14-.566l-5.908-3.376-4.891 1.334a3.366 3.366 0 00-2.475 3.24v4.323c0 .644.523 1.167 1.166 1.167h3.359V43.22a1.025 1.025 0 112.05 0v19.727a1.025 1.025 0 11-2.05 0V48.629H3.217l-.045-.001-.025-.001v12.128a1.025 1.025 0 11-2.051 0V47.827A3.21 3.21 0 010 45.411v-4.323a5.421 5.421 0 013.986-5.218l7.21-1.967c.506-.138.86-.6.86-1.125v-3.32a9.802 9.802 0 01-4.331-7.132h-.124a3.213 3.213 0 01-2.451-1.134 3.229 3.229 0 01-.723-2.616 3.117 3.117 0 011.053-1.849v-4.194c0-3.514 2.8-6.386 6.287-6.502a3.218 3.218 0 012.41-1.1h7.672c4.191 0 7.6 3.41 7.6 7.602v4.194a3.119 3.119 0 011.053 1.849 3.229 3.229 0 01-.722 2.616 3.213 3.213 0 01-2.452 1.134h-.123a9.802 9.802 0 01-4.331 7.132v3.32zm-10.889-24.7a4.46 4.46 0 00-4.454 4.455V15.9l.044-.003a2.37 2.37 0 01.143-.006h.98c.642 0 1.166-.523 1.166-1.166a2.875 2.875 0 013.35-2.844l10.995 1.832c.495.083.857.51.857 1.012 0 .643.523 1.166 1.167 1.166h.978c.049 0 .097.003.144.006l.044.002v-3.366c0-3.06-2.49-5.55-5.55-5.55h-7.672c-.413 0-.788.218-1.002.586-.183.315-.52.51-.886.51h-.304zM8.697 20.275c.566 0 1.025.46 1.025 1.025 0 4.27 3.474 7.743 7.743 7.742 4.269 0 7.742-3.473 7.742-7.742 0-.566.46-1.025 1.026-1.025h1.095a1.166 1.166 0 001.15-1.37c-.088-.54-.644-.963-1.267-.963h-.978a3.223 3.223 0 01-3.093-2.328l-10.263-1.71a.818.818 0 00-.67.184.816.816 0 00-.293.631 3.222 3.222 0 01-3.217 3.223h-.979c-.622 0-1.179.423-1.267.963a1.167 1.167 0 001.15 1.37h1.096zm6.506-1.166v1.096a1.025 1.025 0 01-2.05 0v-1.096a1.025 1.025 0 012.05 0zm5.549-1.026c-.566 0-1.025.46-1.025 1.026v1.096a1.025 1.025 0 002.05 0v-1.096c0-.567-.459-1.026-1.025-1.026zm-4.622 5.39a2.77 2.77 0 002.667 0 1.026 1.026 0 01.96 1.814 4.877 4.877 0 01-2.293.581 4.861 4.861 0 01-2.293-.581 1.025 1.025 0 11.96-1.813zm49.883 16.78l-3.597-.98c1-.363 1.963-.78 2.88-1.251a2.114 2.114 0 001.018-2.563 13.213 13.213 0 01-.7-4.295v-9.863c0-7.213-5.867-13.081-13.08-13.081s-13.08 5.868-13.08 13.081v7.671a1.025 1.025 0 102.05 0v-1.385c.367.143.762.219 1.166.219h.124c.515 4.92 4.687 8.767 9.74 8.767 1.18 0 2.31-.212 3.358-.596v1.185c0 1.447.975 2.723 2.371 3.104l2.507.683a8.876 8.876 0 01-8.236 5.63 8.896 8.896 0 01-1.965-.22 1.025 1.025 0 10-.454 2c.789.18 1.603.27 2.419.27 4.573 0 8.666-2.897 10.223-7.137l2.716.74a3.365 3.365 0 012.475 3.24v4.323c0 .644-.523 1.167-1.166 1.167h-3.359v-2.263a1.025 1.025 0 00-2.05 0v14.248a1.025 1.025 0 102.05 0v-9.934h3.358l.071-.002v7.744a1.025 1.025 0 102.05 0V52.21A3.21 3.21 0 0070 49.795v-4.323a5.421 5.421 0 00-3.986-5.219zM41.504 21.301c0-6.082 4.948-11.03 11.03-11.03 6.082 0 11.03 4.947 11.03 11.03v.323a3.425 3.425 0 00-1.284-.253h-.978a1.168 1.168 0 01-1.167-1.166c0-.502-.362-.93-.857-1.012l-10.994-1.832a2.875 2.875 0 00-3.35 2.844c0 .643-.524 1.166-1.167 1.166h-.979c-.452 0-.885.092-1.284.253V21.3zm3.288 5.48c0-.567-.46-1.026-1.026-1.026H42.67a1.166 1.166 0 01-1.15-1.37c.089-.54.645-.963 1.268-.963h.979a3.222 3.222 0 003.217-3.223c0-.333.183-.538.292-.63a.816.816 0 01.67-.185l10.264 1.71a3.223 3.223 0 003.092 2.328h.979c.622 0 1.179.423 1.267.963a1.166 1.166 0 01-1.15 1.37h-1.096c-.566 0-1.026.459-1.026 1.025 0 4.27-3.473 7.742-7.742 7.742s-7.742-3.473-7.742-7.742zm17.482 1.025h.124c.404 0 .799-.076 1.166-.22v3.578c0 2.169.442 3.898.812 4.966.01.028-.002.06-.018.068-1.738.894-3.655 1.578-5.7 2.038a1.169 1.169 0 01-.715-1.075v-2.224a9.8 9.8 0 004.33-7.131zm-12-3.217v1.096a1.025 1.025 0 01-2.051 0v-1.096a1.025 1.025 0 112.05 0zm5.548-1.026c-.566 0-1.025.46-1.025 1.026v1.096a1.025 1.025 0 002.05 0v-1.096c0-.567-.458-1.026-1.025-1.026zm-4.62 5.39a2.77 2.77 0 002.667 0 1.025 1.025 0 01.96 1.813 4.86 4.86 0 01-2.293.582 4.861 4.861 0 01-2.293-.582 1.025 1.025 0 01.96-1.813zm-16.201 2.282c-6.609 0-11.985 5.376-11.985 11.985v2.212l.001.006a3.218 3.218 0 003.216 3.19h.13a8.618 8.618 0 002.581 5.217 8.76 8.76 0 001.743 1.314v1.663c0 .52-.334.969-.831 1.118l-3.767 1.13a4.287 4.287 0 00-3.073 4.131v.842a1.025 1.025 0 002.05 0V63.2c0-1.007.648-1.877 1.613-2.167l1.889-.567A9.74 9.74 0 0035 62.877a9.733 9.733 0 006.432-2.41l1.89.567a2.248 2.248 0 011.613 2.167v.842a1.025 1.025 0 002.05 0V63.2c0-1.92-1.235-3.58-3.073-4.131l-3.767-1.13a1.16 1.16 0 01-.831-1.118v-1.725a8.947 8.947 0 002.372-2.085h2.082a3.221 3.221 0 003.217-3.217V43.22c0-6.608-5.376-11.984-11.984-11.984zm4.03 28.46a7.701 7.701 0 01-4.03 1.13 7.703 7.703 0 01-4.03-1.13 3.193 3.193 0 001.767-2.872v-.82a8.736 8.736 0 002.53.294 8.219 8.219 0 001.995-.31v.836c0 1.24.692 2.333 1.767 2.872zm-3.825-5.448a6.597 6.597 0 01-4.834-1.873 6.594 6.594 0 01-2.018-4.77c0-.567-.459-1.026-1.025-1.026h-1.096a1.166 1.166 0 01-1.15-1.37c.088-.54.644-.963 1.267-.963h.979a3.221 3.221 0 003.217-3.217v-.672c0-.011 0-.036.03-.057a.064.064 0 01.063-.01l7.857 2.62a4.603 4.603 0 013.15 4.373c0 3.734-2.889 6.858-6.44 6.965zm9.729-4.452c0 .644-.524 1.167-1.167 1.167h-.843a9.163 9.163 0 00.773-3.682 6.65 6.65 0 00-4.553-6.317l-7.858-2.619a2.127 2.127 0 00-1.91.291 2.126 2.126 0 00-.882 1.721v.672c0 .643-.523 1.166-1.166 1.166h-.979c-.438 0-.86.086-1.25.239.403-5.111 4.688-9.148 9.9-9.148 5.478 0 9.935 4.457 9.935 9.935v6.575zm-13.213-5.409a1.025 1.025 0 010 2.051 1.03 1.03 0 01-1.03-1.025 1.02 1.02 0 011.02-1.026h.01zm6.576 0h-.01c-.567 0-1.02.46-1.02 1.026a1.03 1.03 0 001.03 1.025 1.025 1.025 0 000-2.05zM35 49.866c.55 0 1.084-.21 1.506-.59a1.025 1.025 0 011.373 1.524A4.3 4.3 0 0135 51.916a4.3 4.3 0 01-2.878-1.116 1.025 1.025 0 011.373-1.524c.422.38.957.59 1.505.59z" fill="#49B3F7"/></svg><svg fill="none" viewBox="0 0 71 70" id="icons--icon-idea" xmlns="http://www.w3.org/2000/svg"><path fill-rule="evenodd" clip-rule="evenodd" d="M36.277 1.186v1.187a1.186 1.186 0 01-2.373 0V1.186a1.186 1.186 0 012.373 0zm26.315 33.612c1.138 0 2.115.809 2.329 1.926l5.194 26.666a3.56 3.56 0 01-3.501 4.237H41.842C40.832 69.266 37.875 70 35.09 70c-2.814 0-5.8-.752-6.781-2.373H3.567A3.56 3.56 0 01.065 63.39l5.196-26.673a2.373 2.373 0 012.328-1.921h2.296l.169-1.014a2.387 2.387 0 011.998-1.964c.183-.027.372-.052.563-.077l.386-.051a9.548 9.548 0 011.138-8.187 4.822 4.822 0 01-.119-1.012 4.883 4.883 0 012.991-4.499 5.91 5.91 0 017.553-5.31 8.237 8.237 0 016.476-3.19 8.144 8.144 0 014.43 1.316 4.827 4.827 0 017.383.919c.049-.002.096-.006.143-.01.063-.004.127-.01.194-.01a10.095 10.095 0 019.863 8.242 4.855 4.855 0 013.518 6.494 7.237 7.237 0 01.901 5.29l.26.034c.14.017.279.035.418.057a2.385 2.385 0 011.983 1.966l.168 1.01h2.291zM16.483 21.825a2.506 2.506 0 001.125 2.813v-.005a1.186 1.186 0 01-1.224 2.032 4.787 4.787 0 01-.883-.703 7.25 7.25 0 008.203 9.929 7.455 7.455 0 01-.108-1.186 4.129 4.129 0 01-3.684-4.095 1.198 1.198 0 011.187-1.2 1.173 1.173 0 011.186 1.17v.03a1.78 1.78 0 001.686 1.749 7.412 7.412 0 01.679-1.527 1.19 1.19 0 012.042 1.223 5.08 5.08 0 008.193 5.94 1.186 1.186 0 011.33-.33 8.804 8.804 0 003.932.593 8.987 8.987 0 002.048-.376 1.187 1.187 0 01.697 2.268c-.595.176-1.203.303-1.819.38.42.835 1.41 1.603 3.974 2.462A7.573 7.573 0 0148.52 45.3c.366.456.986.622 1.531.411a1.28 1.28 0 00.779-1.177c0-.13-.021-.26-.062-.383-.223-.708-.52-1.39-.885-2.037a9.754 9.754 0 01-2.105.614 1.187 1.187 0 01-.375-2.343 7.562 7.562 0 004.886-2.996 7.309 7.309 0 01-5.48-.506c-.5-.26-.967-.578-1.39-.95a4.07 4.07 0 01-1.49.294 4.114 4.114 0 01-3.697-2.288 1.187 1.187 0 112.123-1.062 1.79 1.79 0 002.577.658c.718-.5.962-1.452.572-2.237a1.187 1.187 0 112.12-1.067 4.041 4.041 0 01-.313 4.176c.182.133.374.253.574.358a5.124 5.124 0 006.05-1.11l.03-.03a5.067 5.067 0 001.003-5.06 4.868 4.868 0 01-.886.554 1.17 1.17 0 01-.503.113 1.186 1.186 0 01-.506-2.255 2.53 2.53 0 001.124-1.04 2.501 2.501 0 00-3.669-3.235 1.187 1.187 0 01-1.423-1.898 4.816 4.816 0 011.535-.765 7.701 7.701 0 00-7.026-5.94c.002.041.007.08.013.12.007.05.014.1.014.15a1.186 1.186 0 11-2.373 0 2.496 2.496 0 00-4.991 0 1.186 1.186 0 11-2.373 0c.007-.53.1-1.056.279-1.556a5.762 5.762 0 00-3.143-.949 5.858 5.858 0 00-5.005 2.856c-.273.464-.48.964-.615 1.486a1.186 1.186 0 01-2.297-.594c.07-.251.153-.5.249-.742a3.703 3.703 0 00-.432-.048 3.607 3.607 0 00-3.518 2.856 4.794 4.794 0 013.365 1.898 1.187 1.187 0 01-1.906 1.415 2.46 2.46 0 00-1.992-1.007 2.506 2.506 0 00-2.406 1.84zm-2.749 12.16c-.453.06-.905.118-1.346.183L8.106 59.932a40.733 40.733 0 0125.798.01V45.084a1.186 1.186 0 012.373 0v14.852a40.726 40.726 0 0125.798 0l-4.283-25.763c-.312-.052-.622-.09-.932-.13h-.001l-.142-.017-.12-.015a7.43 7.43 0 01-.684.956 10.002 10.002 0 01-3.942 6.03c.43.767.782 1.576 1.049 2.414.12.362.181.74.18 1.122a3.653 3.653 0 01-2.217 3.359c-.446.19-.925.287-1.409.287a3.779 3.779 0 01-2.866-1.346 5.258 5.258 0 00-2.416-1.592c-3.48-1.166-5.136-2.483-5.709-4.656-.84-.058-1.67-.208-2.476-.449a7.432 7.432 0 01-11.641-1.973 9.58 9.58 0 01-10.405-4.221l-.327.042zm-11.34 29.86c-.067.345.024.702.248.973.227.276.567.436.925.436h24.502l.354-4.3a39.692 39.692 0 00-19.597 1.243 2.381 2.381 0 01-3.062-2.65L9.487 37.17H7.589L2.393 63.845zm27.958 2.561c.24.376 1.88 1.221 4.738 1.221 2.858 0 4.498-.845 4.739-1.222l-.408-4.93a25.05 25.05 0 00-3.817 1.288 1.18 1.18 0 01-1.026 0 25.362 25.362 0 00-3.818-1.28l-.408 4.923zm36.262-1.152a1.195 1.195 0 001.177-1.41l-5.197-26.672h-1.898l3.72 22.37a2.38 2.38 0 01-3.052 2.657 39.703 39.703 0 00-19.605-1.254l.356 4.31h24.499zM31.074 28.59a1.186 1.186 0 011.76-1.591 4.843 4.843 0 006.245.712 4.729 4.729 0 001.964-3.013 1.186 1.186 0 112.33.446 7.16 7.16 0 01-5.857 5.695 5.884 5.884 0 01-5.527 3.805 1.186 1.186 0 010-2.373 3.534 3.534 0 002.887-1.489 7.154 7.154 0 01-3.802-2.192zm-4.052-2.963c.656 0 1.187-.531 1.187-1.186a3.085 3.085 0 013.085-3.085 1.186 1.186 0 000-2.373 5.464 5.464 0 00-5.458 5.457 1.187 1.187 0 001.186 1.187zM54.56 8.514L53.374 9.7a1.186 1.186 0 101.678 1.678l1.186-1.187a1.186 1.186 0 10-1.678-1.677zm-37.495 2.48a1.186 1.186 0 01-1.934.384l-1.187-1.187a1.187 1.187 0 111.678-1.677L16.808 9.7c.34.34.441.85.257 1.293zm8.037-4.26a1.187 1.187 0 001.096-1.64l-1.363-3.29a1.187 1.187 0 10-2.192.908l1.362 3.289c.184.443.617.732 1.097.732zm20.243-4.93a1.186 1.186 0 112.191.91l-1.362 3.288a1.186 1.186 0 11-2.192-.91l1.363-3.289zm13.86 19.056c.157 0 .311-.031.455-.091l3.288-1.362a1.186 1.186 0 10-.908-2.193l-3.289 1.362a1.186 1.186 0 00.455 2.284zm-47.134-.733a1.187 1.187 0 01-1.55.642l-3.288-1.362a1.186 1.186 0 11.908-2.193l3.288 1.362c.606.251.893.945.642 1.55z" fill="#49B3F7"/></svg><svg fill="none" viewBox="0 0 68 70" id="icons--icon-location" xmlns="http://www.w3.org/2000/svg"><path fill-rule="evenodd" clip-rule="evenodd" d="M20.447 27.213a67.112 67.112 0 01-2.993 3.284 1.187 1.187 0 01-1.687-.001l-.028-.028c-.47-.478-4.763-4.889-7.842-9.735-3.62 5.043-5.524 10.966-5.524 17.234 0 16.355 13.306 29.661 29.66 29.661 15.51 0 28.277-11.963 29.556-27.147-1.19 1.5-2.18 2.6-2.53 2.98l-.051.056a1.187 1.187 0 01-1.746.002c-.882-.957-8.62-9.498-8.62-15.043 0-4.442 2.423-8.258 5.859-9.865-5.65-6.57-13.747-10.305-22.467-10.305-1.38 0-2.774.1-4.166.297.394 1.25.607 2.585.607 3.973 0 1.047-.258 2.194-.695 3.384l-.085.224c-1.093 2.847-3.174 5.927-5.177 8.499.015.075.023.153.023.233 0 1.363.368 2.634 1.115 3.88.332.57.154 1.293-.415 1.637a1.189 1.189 0 01-1.626-.415c-.54-.907-.93-1.843-1.168-2.805zm6.468-20.866C24.868 2.558 21.016 0 16.61 0 10.07 0 4.746 5.642 4.746 12.576c0 1.78.746 3.847 1.85 5.93A32.125 32.125 0 000 37.967c0 17.664 14.37 32.034 32.034 32.034s32.034-14.37 32.035-32.034c0-.282-.006-.564-.016-.845 1.888-2.818 3.573-6.058 3.573-8.646 0-5.889-4.259-10.678-9.492-10.678-.391 0-.777.026-1.156.078-6.12-7.6-15.17-11.943-24.943-11.943-1.697 0-3.415.14-5.12.414zm-1.808 1.684c-1.558-3.351-4.781-5.657-8.497-5.657-5.233 0-9.491 4.576-9.491 10.204 0 1.499.74 3.377 1.843 5.338.03.04.057.08.081.123 2.277 4.01 5.935 8.14 7.573 9.905a70.496 70.496 0 004.04-4.734c2.766-3.555 5.446-7.782 5.446-10.633a10.753 10.753 0 00-.947-4.421 1.166 1.166 0 01-.048-.125zm36.708 28.132c-1.352 1.968-2.794 3.722-3.683 4.76-2.576-2.988-7.114-8.971-7.114-12.448 0-3.955 2.413-7.38 5.737-8.146l.02-.005a6.145 6.145 0 011.358-.154c3.926 0 7.12 3.727 7.12 8.306 0 2.061-1.6 5.008-3.438 7.687zM10.678 11.865a5.939 5.939 0 005.932 5.932 5.939 5.939 0 005.932-5.932 5.939 5.939 0 00-5.932-5.932 5.939 5.939 0 00-5.932 5.932zm2.373 0a3.564 3.564 0 013.559-3.559 3.564 3.564 0 013.56 3.56 3.564 3.564 0 01-3.56 3.559 3.564 3.564 0 01-3.56-3.56zm45.083 20.17a4.75 4.75 0 01-4.745-4.746 4.75 4.75 0 014.745-4.745 4.75 4.75 0 014.746 4.745 4.751 4.751 0 01-4.746 4.746zm0-7.119a2.375 2.375 0 00-2.372 2.373 2.375 2.375 0 002.372 2.373 2.375 2.375 0 002.373-2.373 2.375 2.375 0 00-2.373-2.373zm-6.537 16.551h.047a1.18 1.18 0 001.187-1.139 1.152 1.152 0 00-.32-.855 1.193 1.193 0 00-.82-.368 74.986 74.986 0 01-4.662-.322c-.664-.058-1.234.405-1.293 1.057-.012.036-.012.083-.012.12 0 .617.463 1.126 1.068 1.185 1.566.155 3.191.261 4.805.322zm-10.785-1.2a.735.735 0 00.226.025c.569 0 1.055-.403 1.162-.962a1.185 1.185 0 00-.937-1.388 51.85 51.85 0 01-4.509-1.08c-.616-.178-1.293.202-1.47.82a.96.96 0 00-.048.32c0 .521.356.997.866 1.14 1.483.425 3.073.805 4.71 1.125zM30.36 37.052c.154.073.32.107.498.107.462 0 .89-.272 1.08-.701a1.179 1.179 0 00-.582-1.565c-1.471-.676-2.8-1.424-3.939-2.23-.51-.37-1.281-.238-1.649.283a1.181 1.181 0 00-.214.688c0 .381.19.748.499.962 0 .012.012.012.012.012 1.245.88 2.693 1.697 4.294 2.444z" fill="#49B3F7"/></svg><svg fill="none" viewBox="0 0 70 70" id="icons--icon-sports" xmlns="http://www.w3.org/2000/svg"><g clip-path="url(#dclip0_318_37199)"><path d="M61.104 5.494a1.025 1.025 0 10-1.372 1.525h.001L46.783 19.97l-5.907-5.907c3.146-3.465 4.925-7.74 4.992-11.988A19.404 19.404 0 0155.79 4.27a1.025 1.025 0 10.955-1.815C48.39-1.94 38.212-.293 31.638 6.275c-5.199 5.198-7.535 12.927-5.607 20.456-12.984-1.506-24.226 8.692-24.226 21.561a21.645 21.645 0 005.82 14.794 1.025 1.025 0 101.501-1.398 20.06 20.06 0 01-.921-1.062h4.178a2.98 2.98 0 012.839 2.063l1.293 3.978a19.564 19.564 0 01-3.849-1.978 1.025 1.025 0 00-1.133 1.709A21.688 21.688 0 0023.513 70c14.144 0 24.656-13.445 20.982-27.284a21.435 21.435 0 0017.432-6.151c8.661-8.669 8.316-22.847-.823-31.071zM43.809 2.281c-.13 3.605-1.715 7.341-4.387 10.329L33.84 7.026a19.312 19.312 0 019.97-4.745zM32.39 8.477l5.583 5.583c-2.986 2.67-6.72 4.255-10.328 4.385a19.31 19.31 0 014.745-9.968zm-4.952 12.026c4.248-.067 8.524-1.845 11.988-4.99l5.907 5.907L32.39 34.364a19.288 19.288 0 01-4.952-13.861zm9.076 22.487l-4.832 1.57a5.045 5.045 0 00-1.33-1.435l-3.878-2.817a5.034 5.034 0 00-1.935-.855v-5.166a5.035 5.035 0 001.935-.855l1.774-1.29a21.575 21.575 0 008.639 8.268c-.066.276-.522 1.208-.373 2.58zm-6.284 5.132l-1.48 4.558a2.978 2.978 0 01-2.84 2.063h-4.793a2.978 2.978 0 01-2.84-2.063l-1.48-4.558a2.978 2.978 0 011.084-3.338l3.878-2.817a2.99 2.99 0 013.509 0l3.878 2.817a2.978 2.978 0 011.084 3.338zm-3.517-19.225c.178.476.372.944.582 1.403l-2.027 1.473a2.98 2.98 0 01-3.51 0l-3.38-2.456a19.678 19.678 0 018.335-.42zm-10.64 1.202c.494.494.568.465 4.48 3.333.592.43 1.253.713 1.935.855v5.165a5.033 5.033 0 00-1.935.856l-3.877 2.817a5.043 5.043 0 00-1.331 1.435l-4.832-1.57a5.036 5.036 0 00-.218-2.105c-1.495-4.538-1.466-4.661-1.781-5.282a19.75 19.75 0 017.56-5.504zm-9.016 7.456l1.287 3.964a2.981 2.981 0 01-1.084 3.337l-3.38 2.455a19.533 19.533 0 013.177-9.756zm7.397 21.463a5.038 5.038 0 00-2.07-.443c-4.857.02-4.9-.047-5.587.063a19.564 19.564 0 01-2.887-8.891c.622-.316.635-.407 4.555-3.232A5.04 5.04 0 009.88 44.94l4.769 1.55a5.032 5.032 0 00.198 2.265l1.48 4.559c.216.662.558 1.255.995 1.756l-2.868 3.948zm13.733 8.369a19.717 19.717 0 01-9.348 0c-.108-.688-.188-.722-1.666-5.332a5.04 5.04 0 00-1.06-1.831l2.844-3.915c.66.312 1.393.485 2.16.485h4.793c.767 0 1.5-.173 2.16-.485l2.845 3.915a5.039 5.039 0 00-1.061 1.831c-1.48 4.614-1.559 4.647-1.667 5.332zm2.326-.727l1.291-3.971a2.981 2.981 0 012.84-2.063h4.164a19.748 19.748 0 01-8.295 6.034zm9.708-8.023c-.681-.108-.73-.043-5.578-.062a5.04 5.04 0 00-2.07.443l-2.868-3.948a5.038 5.038 0 00.994-1.757l1.482-4.558c.243-.75.303-1.523.198-2.265l4.769-1.55a5.038 5.038 0 001.414 1.575c3.949 2.845 3.933 2.916 4.555 3.232a19.524 19.524 0 01-2.896 8.89zm-.454-13.78a2.984 2.984 0 01-1.084-3.338l.078-.241c1.12.455 2.289.816 3.495 1.077a19.58 19.58 0 01.89 4.956l-3.38-2.455zm7.934-4.092a19.289 19.289 0 01-13.861-4.95L46.782 22.87l5.907 5.906c-3.145 3.464-4.923 7.74-4.99 11.988zm2.058-.206c.13-3.605 1.715-7.342 4.385-10.328l5.583 5.583a19.31 19.31 0 01-9.968 4.745zm11.418-6.195l-5.583-5.583c2.987-2.672 6.724-4.256 10.329-4.387a19.31 19.31 0 01-4.746 9.97zm4.952-12.029c-4.246.067-8.523 1.846-11.989 4.992l-5.906-5.907 12.95-12.95a19.396 19.396 0 014.945 13.865z" fill="#49B3F7"/></g><defs><clipPath id="dclip0_318_37199"><path fill="#fff" d="M0 0h70v70H0z"/></clipPath></defs></svg><svg fill="none" viewBox="0 0 70 68" id="icons--icon-travel" xmlns="http://www.w3.org/2000/svg"><path fill-rule="evenodd" clip-rule="evenodd" d="M69.904 16.977a1.033 1.033 0 00-.204-.294l-1.89-1.97c-.272-.27-.67-.37-1.036-.257l-3.41 1.035-3.997-4.239 8.97-4.995a1.042 1.042 0 00.307-1.677l-2.52-2.52a1.042 1.042 0 00-1.034-.242l-11.368 3.44-3.825-4.06a3.461 3.461 0 00-3.94-.936h-.063a4.21 4.21 0 00-2.291 2.291 3.857 3.857 0 00-.229.842l-.435-.15a1.072 1.072 0 00-.656 2.041c.55.179 1.099.378 1.648.585.166.26.36.499.578.714l4.032 3.825-1.156 3.818c-11.307-8.066-27.012-5.438-35.077 5.87-8.066 11.306-5.438 27.01 5.87 35.076 11.306 8.066 27.01 5.438 35.076-5.869a25.148 25.148 0 00-.552-29.953l1.827-3.297 4.238 3.996-1.02 3.376c-.123.37-.026.779.25 1.056 0 0 2.09 2.07 2.14 2.14a1.035 1.035 0 001.428-.4l2.79-5.116 5.038-2.747c.523-.241.752-.86.51-1.383zM16.62 18.388a22.916 22.916 0 0116.22-6.708c.476 0 .952.014 1.428.043 4.046 3.732 2.854 7.136.142 10.205a50.108 50.108 0 01-5.138 4.738c-2.633 2.24-5.088 4.332-6.016 6.423-1.099 2.483-.292 4.731 4.146 6.694 2.22.984 3.426 1.748 3.897 2.326a.12.12 0 00.02.02l-.049.016a8.87 8.87 0 01-3.368.578c-5.368.228-9.195-3.195-12.168-5.855l-.02-.018-.012-.01c-2.136-1.901-3.91-3.48-5.755-3.494a22.915 22.915 0 016.673-14.958zm39.242 16.256h.007a23.007 23.007 0 01-15.85 21.859 7.486 7.486 0 01.878-4.86 17.694 17.694 0 014.282-4.71c6.587-5.495 6.958-8.563 7.243-10.925.179-1.492.314-2.605 3.262-4.225.118.95.177 1.905.178 2.861zm-1.327-7.72c.319.898.58 1.815.785 2.747-4.49 2.283-4.689 3.91-4.96 6.13v.003c-.243 1.998-.56 4.61-6.508 9.573a19.52 19.52 0 00-4.782 5.303A9.464 9.464 0 0038 57.052c-12.38 2.83-24.71-4.911-27.539-17.29a22.992 22.992 0 01-.564-4.311c1.092 0 2.493 1.248 4.205 2.772l.206.182c3.268 2.919 7.45 6.644 13.68 6.423a10.705 10.705 0 004.281-.814 2.14 2.14 0 001.185-1.341 2.041 2.041 0 00-.514-1.863c-.67-.82-2.14-1.791-4.667-2.919-3.018-1.334-3.675-2.633-3.083-3.96.648-1.515 2.599-3.218 4.778-5.12.223-.194.448-.39.674-.59a51.948 51.948 0 005.36-4.994c2.983-3.397 4.517-7.101 1.484-11.155 3.37.69 6.542 2.131 9.277 4.218l-1.641 5.416c-.121.372-.025.78.25 1.057 0 0 2.662 2.64 2.747 2.69a1.035 1.035 0 001.414-.376c.005-.008.01-.016.013-.024l2.077-3.753a22.943 22.943 0 012.912 5.623zm9.57-7.972l-.921.457c-.206.102-.372.27-.471.478l-.457.927-1.777 3.212-.52-.571 1.034-3.418a1.037 1.037 0 00-.336-1.1l-5.63-5.302a1.035 1.035 0 00-1.492.043c-.07.079-5.138 9.206-5.138 9.206l-1.106-1.106 3.454-11.382a1.035 1.035 0 00-.335-1.107l-4.482-4.217a1.484 1.484 0 01-.407-1.713 2.241 2.241 0 011.164-1.156h.035a1.485 1.485 0 011.67.428l4.282 4.525c.269.288.678.399 1.056.285l11.418-3.447L66.253 5.1l-9.063 4.982a1.034 1.034 0 00-.412 1.403l.013.024c.043.078 5.502 5.887 5.502 5.887.27.286.68.394 1.056.278l3.432-1.034.536.535-3.212 1.777zM34.831 1.739c1 .057 2.005.164 2.99.314a1.073 1.073 0 01-.157 2.14H37.5a36.047 36.047 0 00-2.797-.313 1.072 1.072 0 11.128-2.141zm-5.238.136a1.075 1.075 0 11.207 2.14c-.928.093-1.863.229-2.784.407h-.206l.007.029a1.075 1.075 0 11-.2-2.141 32.495 32.495 0 012.976-.435zM3.497 19.822a1.07 1.07 0 011.912.964 25.741 25.741 0 00-1.149 2.562l-.002.005a1.07 1.07 0 01-1.39.601 1.07 1.07 0 01-.599-1.384c.364-.935.778-1.856 1.228-2.748zm-1.35 6.865a1.07 1.07 0 00-1.42.914 32.34 32.34 0 00-.499 2.962 1.07 1.07 0 00.906 1.198h.136a1.07 1.07 0 001.063-.942c.114-.927.271-1.862.471-2.768a1.07 1.07 0 00-.657-1.364zM13.35 58.423a30.656 30.656 0 01-2.153-1.941 1.07 1.07 0 00-1.506 0 1.07 1.07 0 000 1.512 27.288 27.288 0 002.227 2.02 1.07 1.07 0 001.432-1.591zm-6.87-8.015c.478.8.999 1.585 1.548 2.341a1.07 1.07 0 01-1.726 1.263 32.418 32.418 0 01-1.663-2.505l-.001-.002h-.001a1.07 1.07 0 01.373-1.468l.002-.001a1.07 1.07 0 011.468.372zm-2.184-4.41a30.668 30.668 0 01-.92-2.654 1.07 1.07 0 00-1.356-.721 1.07 1.07 0 00-.714 1.327c.285.957.614 1.913.985 2.855a1.08 1.08 0 002.005-.806zM2.37 38.551v-.003a33.576 33.576 0 01-.228-2.797A1.071 1.071 0 100 35.829c0 1 .114 2.006.242 2.998a1.07 1.07 0 001.035.92h.164a1.07 1.07 0 00.928-1.196zm7.216-25.68a1.077 1.077 0 00-1.52.093 31.453 31.453 0 00-1.87 2.355 1.07 1.07 0 00.863 1.699v.014a1.07 1.07 0 00.871-.442 30.679 30.679 0 011.748-2.198 1.077 1.077 0 00-.092-1.52zm6.077-5.1a1.07 1.07 0 00-1.44-.266 34.647 34.647 0 00-2.399 1.813 1.072 1.072 0 101.37 1.648 28.97 28.97 0 012.241-1.698 1.07 1.07 0 00.228-1.497zm3.586-.866h.005-.022.008a1.07 1.07 0 01-.443-2.04c.9-.45 1.834-.82 2.769-1.163a1.07 1.07 0 11.713 2.012c-.877.321-1.748.685-2.59 1.085a1.07 1.07 0 01-.443.106h.003zm15.584 58.411a1.073 1.073 0 01.136 2.141c-.671.064-1.385.064-2.099.064h-.906a1.07 1.07 0 11.057-2.14c.935.028 1.877.007 2.812-.065zM63.988 41.52a1.071 1.071 0 00-1.302.775 29.114 29.114 0 01-.82 2.683 1.07 1.07 0 00.649 1.349 1.07 1.07 0 001.369-.647v-.003c.336-.942.629-1.905.879-2.854a1.071 1.071 0 00-.775-1.303zm.746-15.196c.25.963.457 1.955.62 2.94a1.07 1.07 0 01-.884 1.227h-.178a1.07 1.07 0 01-1.042-.878c-.157-.92-.35-1.848-.586-2.747a1.07 1.07 0 012.07-.542zm-3.432 22.693a.892.892 0 01.019.01l.01.006.018.01c.51.3.68.956.381 1.465a36.205 36.205 0 01-1.57 2.562 1.073 1.073 0 11-1.755-1.234c.528-.77 1.02-1.577 1.47-2.398a1.07 1.07 0 011.427-.421zm3.431-15.6a1.07 1.07 0 00-1.085 1.056v.164a30.9 30.9 0 01-.128 2.812 1.07 1.07 0 00.97 1.163h.1a1.07 1.07 0 001.078-.992 32.2 32.2 0 00.136-2.997v-.143a1.07 1.07 0 00-1.07-1.063zm-40.327 30.8a22.21 22.21 0 002.74.628 1.075 1.075 0 01-.199 2.141h-.2a43.812 43.812 0 01-3.05-.75 1.07 1.07 0 01.71-2.019zm19.305.303a1.07 1.07 0 00-1.299-.66v.03c-.885.292-1.798.542-2.704.713a1.072 1.072 0 00.47 2.09c.971-.22 1.949-.492 2.898-.799a1.07 1.07 0 00.635-1.374zm-26.398-3.343a51.5 51.5 0 002.49 1.335 1.073 1.073 0 11-.913 1.94 42.556 42.556 0 01-2.661-1.427 1.071 1.071 0 111.084-1.848zm39.488-5.551a1.07 1.07 0 00-1.494.05h.007c-.642.713-1.32 1.34-2.013 1.962a1.072 1.072 0 001.427 1.598c.714-.663 1.47-1.37 2.141-2.098a1.07 1.07 0 00-.068-1.512zm-7.374 4.97a1.07 1.07 0 011.099 1.837 33.694 33.694 0 01-2.605 1.499 1.07 1.07 0 01-.977-1.906 45.236 45.236 0 002.433-1.427v.029a.951.951 0 01.05-.032z" fill="#49B3F7"/></svg><svg fill="none" viewBox="0 0 27 35" id="reasons--1" xmlns="http://www.w3.org/2000/svg"><path d="M13.304.721L.544.018C.189 23.402 17.888 32.31 26.65 34.459l-.04-13.38S15.64 18.153 13.304.72z" fill="#49B3F7"/></svg><svg fill="none" viewBox="0 0 32 31" id="reasons--2" xmlns="http://www.w3.org/2000/svg"><path d="M.643 18.394l1.36 12.211C25.116 26.978 31.05 8.694 31.757.025L18.571 2.333S17.454 13.223.643 18.393z" fill="#49B3F7"/></svg><svg fill="none" viewBox="0 0 43 20" id="reasons--3" xmlns="http://www.w3.org/2000/svg"><path d="M33.005 19.733l9.218-8.126C26.398-5.215 8.16.434.685 4.834l9.223 9.46s9.518-5.34 23.097 5.44z" fill="#49B3F7"/></svg><svg fill="none" viewBox="0 0 40 40" id="socials--telegramm" xmlns="http://www.w3.org/2000/svg"><circle cx="20" cy="20" r="20" fill="#2F89CE"/><path d="M9.35 20.374l4.599 1.715 1.792 5.767c.078.39.546.467.858.233l2.571-2.104c.234-.233.624-.233.935 0l4.599 3.351c.311.234.779.078.857-.311l3.429-16.366c.078-.39-.312-.78-.701-.624L9.35 19.361c-.468.156-.468.857 0 1.013zm6.158.857l9.04-5.533c.156-.078.312.156.156.234L17.3 22.868c-.234.234-.468.546-.468.935l-.233 1.87c0 .234-.39.312-.468 0l-.935-3.428c-.234-.39-.078-.858.312-1.014z" fill="#fff"/></svg><svg fill="none" viewBox="0 0 40 40" id="socials--watsapp" xmlns="http://www.w3.org/2000/svg"><circle cx="20" cy="20" r="20" fill="#48C95F"/><path d="M27.927 12.063A10.428 10.428 0 0020.537 9c-5.78 0-10.464 4.667-10.464 10.427 0 1.823.512 3.646 1.39 5.177L10 30l5.561-1.458c1.537.802 3.22 1.24 4.976 1.24 5.78 0 10.463-4.667 10.463-10.428-.073-2.698-1.098-5.323-3.073-7.291zm-2.342 11.083c-.22.583-1.244 1.166-1.756 1.24a4.104 4.104 0 01-1.61-.073c-.365-.146-.878-.292-1.463-.584-2.634-1.094-4.317-3.719-4.463-3.937-.147-.146-1.098-1.386-1.098-2.698 0-1.313.659-1.896.878-2.188.22-.291.512-.291.732-.291h.512c.146 0 .366-.073.585.437.22.51.732 1.823.805 1.896a.463.463 0 010 .437 1.527 1.527 0 01-.292.438c-.147.146-.293.364-.366.437-.147.146-.293.292-.147.51.147.293.659 1.095 1.464 1.824 1.024.875 1.83 1.166 2.122 1.312.293.146.439.073.585-.073.146-.145.659-.729.805-1.02.146-.292.366-.22.585-.146.22.073 1.537.729 1.756.875.293.145.44.218.513.291.073.22.073.73-.147 1.313z" fill="#fff"/></svg></svg>